<?xml version="1.0" encoding="UTF-8"?>
<svg width="526px" height="80px" viewBox="0 0 526 80" version="1.1" xmlns="http://www.w3.org/2000/svg" xmlns:xlink="http://www.w3.org/1999/xlink">
    <title>Artboard Copy 3</title>
    <defs>
        <polygon id="path-1" points="0 0.915274371 0 36.3270324 55.9484614 36.3270324 55.9484614 0.220027696"></polygon>
    </defs>
    <g id="Artboard-Copy-3" stroke="none" stroke-width="1" fill="none" fill-rule="evenodd">
        <g id="Group-2-Copy" transform="translate(11.000000, 12.000000)">
            <polygon id="Path-3-Copy" stroke="#4263EB" stroke-width="2.28799977" fill="#CCEDFF" stroke-linecap="square" points="6.50288646e-15 19.8841659 6.50288646e-15 55.2959239 55.9484614 55.2959239 55.9484614 19.1889192"></polygon>
            <path d="M47.9024811,-0.915199907 L6.93584285,-0.915199907 L6.93584285,48.5550186 L47.9024811,48.5550186 L47.9024811,-0.915199907 Z" id="Rectangle-Copy" stroke="#E67700" stroke-width="1.83039981" fill="#FCEDAB" stroke-linecap="square"></path>
            <polygon id="Path-5-Copy" fill="#CCEDFF" points="3.53358704 22.3157783 3.53358704 50.5844745 53.0038055 50.5844745 53.0038055 22.3157783 28.2128364 40.4539821"></polygon>
            <g id="face" transform="translate(18.256866, 8.901693)" fill="#E67700">
                <ellipse id="Oval" cx="2.68552625" cy="3.67493066" rx="2.68552625" ry="3.67493066"></ellipse>
                <ellipse id="Oval-Copy" cx="15.2650966" cy="3.67493066" rx="2.68552625" ry="3.67493066"></ellipse>
                <path d="M8.97531143,15.1225569 C11.0418388,15.1225569 13.6863699,14.8543631 15.7985854,13.4132531 C17.910801,11.9721431 16.8207031,14.2929921 16.2696844,15.1225569 C15.7186656,15.9521217 14.0160993,18.2773877 8.97531143,18.2773877 C3.93452352,18.2773877 3.13412619,16.4312188 1.979637,15.3361556 C0.842263631,13.3652631 0.917260338,12.7564798 2.20462712,13.5098056 C4.1356773,14.6397943 6.90878407,15.1225569 8.97531143,15.1225569 Z" id="Path-7"></path>
            </g>
            <g id="Group" transform="translate(0.000000, 18.968891)">
                <mask id="mask-2" fill="white">
                    <use xlink:href="#path-1"></use>
                </mask>
                <use id="Path-3-Copy" fill="#CCEDFF" opacity="0" xlink:href="#path-1"></use>
                <polyline id="Path-4-Copy" stroke="#4263EB" stroke-width="2.94465586" stroke-linecap="round" stroke-linejoin="round" mask="url(#mask-2)" points="-3.04098407 1.04753148 28.0047369 21.6037531 57.6575941 1.04753148"></polyline>
                <line x1="0.68639993" y1="37.5447028" x2="19.447998" y2="16.037505" id="Path-6-Copy" stroke="#4263EB" stroke-width="2.94465586" stroke-linecap="round" mask="url(#mask-2)"></line>
                <line x1="36.748943" y1="38.4599027" x2="56.425741" y2="16.9527049" id="Path-6-Copy-2" stroke="#4263EB" stroke-width="2.94465586" stroke-linecap="round" mask="url(#mask-2)" transform="translate(46.402469, 27.743371) scale(-1, 1) translate(-46.402469, -27.743371) "></line>
            </g>
        </g>
        <path d="M108.892987,59.1842105 L108.892987,58.5570175 C108.220401,58.2997076 107.595856,57.9539474 107.019353,57.5197368 C106.442851,57.0855263 106.106557,56.3859649 106.010474,55.4210526 L106.010474,55.4210526 L106.010474,46.3991228 C106.971311,46.7207602 107.868094,46.8815789 108.70082,46.8815789 C110.878719,46.8815789 113.112667,46.4554094 115.402664,45.6030702 C117.692661,44.750731 119.630351,43.3998538 121.215733,41.5504386 C122.801116,39.7010234 123.593807,37.3932749 123.593807,34.627193 C123.593807,31.8932749 122.961255,29.8187135 121.696152,28.4035088 C120.431049,26.9883041 118.733569,26.0555556 116.603711,25.6052632 C114.473854,25.1549708 111.759487,24.9298246 108.46061,24.9298246 L108.46061,24.9298246 L94.4804189,24.9298246 L94.4804189,25.4605263 C95.9537037,25.9429825 96.7544019,26.8114035 96.8825137,28.0657895 L96.8825137,28.0657895 L96.8825137,55.4210526 C96.7864299,56.3859649 96.4501366,57.0855263 95.8736339,57.5197368 C95.2971311,57.9539474 94.6725865,58.2997076 94,58.5570175 L94,58.5570175 L94,59.1842105 L108.892987,59.1842105 Z M107.836066,45.7236842 C107.131451,45.7236842 106.52292,45.5307018 106.010474,45.1447368 L106.010474,45.1447368 L106.010474,28.7412281 C106.010474,27.5833333 106.170613,26.8114035 106.490893,26.4254386 C106.811172,26.0394737 107.467744,25.8464912 108.46061,25.8464912 C109.709699,25.8464912 111.006831,26.369152 112.352004,27.4144737 C113.697177,28.4597953 114.369763,30.7836257 114.369763,34.3859649 C114.369763,37.6023392 113.929379,40.0467836 113.048611,41.7192982 C112.167843,43.3918129 111.231026,44.4773392 110.23816,44.9758772 C109.245294,45.4744152 108.444596,45.7236842 107.836066,45.7236842 Z M135.892532,59.4254386 C138.262599,59.4254386 140.376442,58.8866959 142.234062,57.8092105 C144.091682,56.7317251 145.540946,55.2280702 146.581853,53.2982456 C147.622761,51.3684211 148.143215,49.1812865 148.143215,46.7368421 C148.111187,42.4269006 147.022237,39.1140351 144.876366,36.7982456 C142.730495,34.4824561 139.719869,33.3245614 135.84449,33.3245614 C133.474423,33.3245614 131.36058,33.871345 129.50296,34.9649123 C127.64534,36.0584795 126.196076,37.6103801 125.155168,39.620614 C124.114261,41.630848 123.593807,43.9707602 123.593807,46.6403509 C123.593807,50.6608187 124.67475,53.7967836 126.836635,56.0482456 C128.99852,58.2997076 132.017152,59.4254386 135.892532,59.4254386 Z M136.132741,58.7017544 C135.524211,58.7017544 134.899666,58.2675439 134.259107,57.3991228 C133.618549,56.5307018 133.050053,55.2119883 132.55362,53.4429825 C132.057187,51.6739766 131.744915,49.5190058 131.616803,46.9780702 C131.584775,46.4634503 131.568761,45.7397661 131.568761,44.8070175 C131.568761,42.4912281 131.768936,40.5211988 132.169285,38.8969298 C132.569634,37.2726608 133.074074,36.0584795 133.682605,35.254386 C134.291135,34.4502924 134.899666,34.0482456 135.508197,34.0482456 C136.180783,34.0482456 136.845363,34.5146199 137.501935,35.4473684 C138.158508,36.380117 138.727004,37.7872807 139.207423,39.6688596 C139.687842,41.5504386 139.992107,43.8581871 140.120219,46.5921053 C140.152247,46.9780702 140.16826,47.5248538 140.16826,48.2324561 C140.16826,50.4195906 139.960079,52.3011696 139.543716,53.877193 C139.127353,55.4532164 138.606899,56.6513158 137.982354,57.4714912 C137.35781,58.2916667 136.741272,58.7017544 136.132741,58.7017544 Z M161.739071,59.1842105 L161.739071,58.6535088 C160.265786,58.1710526 159.465088,57.3026316 159.336976,56.0482456 L159.336976,56.0482456 L159.288934,28.3552632 C159.288934,26.3932749 159.2489,25.0102339 159.16883,24.2061404 C159.08876,23.4020468 158.872571,23 158.520264,23 C158.039845,23 157.062993,23.2894737 155.589709,23.8684211 C154.116424,24.4473684 152.675167,25.1388889 151.265938,25.9429825 C149.856709,26.747076 148.895871,27.502924 148.383424,28.2105263 L148.383424,28.2105263 L148.671676,28.5 C149.69657,28.5 150.417198,28.6527778 150.833561,28.9583333 C151.249924,29.2638889 151.498141,29.7383041 151.57821,30.3815789 C151.65828,31.0248538 151.698315,32.1505848 151.698315,33.7587719 L151.698315,33.7587719 L151.698315,37.5219298 L151.746357,56.0482456 C151.618245,57.3026316 150.817547,58.1710526 149.344262,58.6535088 L149.344262,58.6535088 L149.344262,59.1842105 L161.739071,59.1842105 Z M169.617942,31.4912281 C170.835003,31.4912281 171.835876,31.0972222 172.62056,30.3092105 C173.405244,29.5211988 173.797587,28.5 173.797587,27.245614 C173.797587,26.0233918 173.405244,25.0182749 172.62056,24.2302632 C171.835876,23.4422515 170.835003,23.0482456 169.617942,23.0482456 C168.368852,23.0482456 167.351966,23.4422515 166.567281,24.2302632 C165.782597,25.0182749 165.390255,26.0233918 165.390255,27.245614 C165.390255,28.5 165.782597,29.5211988 166.567281,30.3092105 C167.351966,31.0972222 168.368852,31.4912281 169.617942,31.4912281 Z M176.055556,59.1842105 L176.055556,58.6535088 C174.582271,58.1710526 173.781573,57.3026316 173.653461,56.0482456 L173.653461,56.0482456 L173.653461,38.1008772 C173.653461,36.4605263 173.605419,35.2865497 173.509335,34.5789474 C173.413251,33.871345 173.20507,33.5175439 172.884791,33.5175439 C172.404372,33.5175439 171.42752,33.8070175 169.954235,34.3859649 C168.48095,34.9649123 167.039693,35.6564327 165.630464,36.4605263 C164.221236,37.2646199 163.260398,38.0204678 162.747951,38.7280702 L162.747951,38.7280702 L163.036202,39.0175439 C163.99704,39.0175439 164.685641,39.1622807 165.102004,39.4517544 C165.518367,39.7412281 165.782597,40.1834795 165.894695,40.7785088 C166.006793,41.373538 166.062842,42.3625731 166.062842,43.745614 L166.062842,43.745614 L166.062842,56.0482456 C165.93473,57.3026316 165.134032,58.1710526 163.660747,58.6535088 L163.660747,58.6535088 L163.660747,59.1842105 L176.055556,59.1842105 Z M180.763661,59.7631579 C181.180024,59.7631579 182.020757,59.4736842 183.285861,58.8947368 C184.550964,58.3157895 185.800053,57.624269 187.033128,56.8201754 C188.266204,56.0160819 189.138965,55.2602339 189.651412,54.5526316 L189.651412,54.5526316 L189.36316,54.2631579 C188.338267,54.2631579 187.617638,54.1023392 187.201275,53.7807018 C186.784912,53.4590643 186.536696,52.9444444 186.456626,52.2368421 C186.376556,51.5292398 186.336521,50.2909357 186.336521,48.5219298 L186.336521,35.6885965 L189.60337,35.6885965 L189.60337,34.2894737 L186.336521,34.2894737 L186.336521,27.4385965 L185.423725,27.4385965 C184.558971,28.8538012 183.558098,30.1403509 182.421107,31.2982456 C181.284115,32.4561404 180.195165,33.380848 179.154258,34.0723684 C178.11335,34.7638889 177.304645,35.1578947 176.728142,35.254386 L176.728142,35.254386 L176.728142,35.6885965 L178.745902,35.6885965 L178.745902,53.2017544 C178.745902,54.3918129 178.857999,55.4934211 179.082195,56.5065789 C179.30639,57.5197368 179.586635,58.3157895 179.922928,58.8947368 C180.259221,59.4736842 180.539466,59.7631579 180.763661,59.7631579 Z M203.391393,59.6666667 C204.960762,59.6666667 206.474082,59.2887427 207.931352,58.5328947 C209.388623,57.7770468 210.653726,56.8121345 211.726662,55.6381579 C212.799598,54.4641813 213.576275,53.2660819 214.056694,52.0438596 L214.056694,52.0438596 L213.480191,51.5131579 C212.295158,52.8318713 211.102117,53.8369883 209.90107,54.5285088 C208.700023,55.2200292 207.555024,55.5657895 206.466075,55.5657895 C204.928734,55.5657895 203.63961,54.8823099 202.598702,53.5153509 C201.557794,52.1483918 200.909229,50.1783626 200.653005,47.6052632 C204.848664,47.2192982 207.987401,46.5599415 210.069217,45.627193 C212.151032,44.6944444 213.304038,43.3918129 213.528233,41.7192982 C213.560261,41.5263158 213.576275,41.2368421 213.576275,40.8508772 C213.576275,38.5994152 212.671486,36.8062865 210.861908,35.4714912 C209.05233,34.1366959 206.77034,33.4692982 204.015938,33.4692982 C201.677899,33.4692982 199.604091,34.0160819 197.794513,35.1096491 C195.984935,36.2032164 194.567699,37.747076 193.542805,39.7412281 C192.517911,41.7353801 192.005464,44.0350877 192.005464,46.6403509 C192.005464,49.0204678 192.501897,51.2076023 193.494763,53.2017544 C194.487629,55.1959064 195.856823,56.7719298 197.602345,57.9298246 C199.347867,59.0877193 201.27755,59.6666667 203.391393,59.6666667 Z M200.604964,46.5921053 C200.540908,44.9839181 200.50888,43.874269 200.50888,43.2631579 C200.50888,37.2163743 201.677899,34.1929825 204.015938,34.1929825 C205.104888,34.1929825 205.961635,34.5789474 206.586179,35.3508772 C207.210724,36.122807 207.522996,37.3289474 207.522996,38.9692982 C207.522996,39.7412281 207.490968,40.3523392 207.426913,40.8026316 C207.234745,42.2821637 206.786354,43.4239766 206.08174,44.2280702 C205.377125,45.0321637 204.584434,45.5789474 203.703666,45.8684211 C202.822898,46.1578947 201.789997,46.3991228 200.604964,46.5921053 Z M250.416467,59.1834131 C252.285204,59.1780968 253.889248,59.1461988 255.228597,59.0877193 C256.701882,59.0233918 257.550622,58.8625731 257.774818,58.6052632 C258.095097,58.2836257 258.495446,57.2945906 258.975865,55.6381579 C259.456284,53.9817251 259.760549,52.5102339 259.888661,51.2236842 L259.888661,51.2236842 L259.023907,51.2236842 C258.607544,52.7032164 257.782825,53.9736842 256.54975,55.0350877 C255.316674,56.0964912 254.043564,56.9005848 252.730419,57.4473684 C251.417274,57.994152 250.456436,58.2675439 249.847905,58.2675439 L249.847905,58.2675439 L245.331967,58.2675439 C244.339101,58.2675439 243.682529,58.0745614 243.36225,57.6885965 C243.04197,57.3026316 242.881831,56.5307018 242.881831,55.372807 L242.881831,55.372807 L242.881831,41.0438596 C242.881831,40.7865497 242.977914,40.5614035 243.170082,40.3684211 C243.36225,40.1754386 243.586445,40.0789474 243.842668,40.0789474 L243.842668,40.0789474 L245.043716,40.0789474 C247.093503,40.0789474 248.622837,40.1754386 249.631717,40.3684211 C250.640597,40.5614035 251.337204,40.9152047 251.721539,41.4298246 C252.105874,41.9444444 252.298042,42.7163743 252.298042,43.745614 L252.298042,43.745614 L253.210838,43.745614 L253.210838,35.495614 L252.298042,35.495614 C252.298042,36.5248538 252.105874,37.2967836 251.721539,37.8114035 C251.337204,38.3260234 250.640597,38.6798246 249.631717,38.872807 C248.622837,39.0657895 247.093503,39.1622807 245.043716,39.1622807 L245.043716,39.1622807 L243.842668,39.1622807 C243.586445,39.1622807 243.36225,39.0657895 243.170082,38.872807 C242.977914,38.6798246 242.881831,38.4546784 242.881831,38.1973684 L242.881831,38.1973684 L242.881831,28.7412281 C242.881831,27.5833333 243.04197,26.8114035 243.36225,26.4254386 C243.682529,26.0394737 244.339101,25.8464912 245.331967,25.8464912 L245.331967,25.8464912 L248.598816,25.8464912 C249.207347,25.8464912 250.168185,26.119883 251.48133,26.6666667 C252.794475,27.2134503 254.067585,28.0175439 255.30066,29.0789474 C256.533736,30.1403509 257.358455,31.4108187 257.774818,32.8903509 L257.774818,32.8903509 L258.639572,32.8903509 C258.51146,31.6038012 258.207195,30.1323099 257.726776,28.4758772 C257.246357,26.8194444 256.846008,25.8304094 256.525729,25.5087719 C256.301533,25.251462 255.452793,25.0906433 253.979508,25.0263158 C252.506223,24.9619883 250.712659,24.9298246 248.598816,24.9298246 L248.598816,24.9298246 L231.351776,24.9298246 L231.351776,25.4605263 C232.825061,25.9429825 233.625759,26.8114035 233.753871,28.0657895 L233.753871,28.0657895 L233.753871,56.0482456 C233.625759,57.3026316 232.825061,58.1710526 231.351776,58.6535088 L231.351776,58.6535088 L231.351776,59.1842105 L250.416467,59.1834131 Z M273.580601,59.1842105 L273.580601,58.6535088 C272.107316,58.1710526 271.306618,57.3026316 271.178506,56.0482456 L271.178506,56.0482456 L271.178506,40.0789474 C271.178506,39.5643275 271.162492,39.1944444 271.130464,38.9692982 C271.578855,38.4225146 272.059274,38.004386 272.571721,37.7149123 C273.084168,37.4254386 273.596615,37.2807018 274.109062,37.2807018 C275.230039,37.2807018 276.166856,37.6425439 276.919513,38.3662281 C277.672169,39.0899123 278.048497,40.1915205 278.048497,41.6710526 L278.048497,41.6710526 L278.048497,56.0482456 C277.920386,57.3026316 277.119687,58.1710526 275.646403,58.6535088 L275.646403,58.6535088 L275.646403,59.1842105 L288.041211,59.1842105 L288.041211,58.6535088 C286.567927,58.1710526 285.767228,57.3026316 285.639117,56.0482456 L285.639117,56.0482456 L285.639117,41.1885965 C285.607089,40.5131579 285.511005,39.8538012 285.350865,39.2105263 C285.767228,38.5994152 286.263661,38.125 286.840164,37.7872807 C287.416667,37.4495614 287.977155,37.2807018 288.52163,37.2807018 C289.642608,37.2807018 290.579425,37.6425439 291.332081,38.3662281 C292.084737,39.0899123 292.461066,40.1915205 292.461066,41.6710526 L292.461066,41.6710526 L292.461066,56.0482456 C292.332954,57.3026316 291.532256,58.1710526 290.058971,58.6535088 L290.058971,58.6535088 L290.058971,59.1842105 L302.45378,59.1842105 L302.45378,58.6535088 C300.980495,58.1710526 300.179797,57.3026316 300.051685,56.0482456 L300.051685,56.0482456 L300.051685,41.1885965 C299.987629,39.5482456 299.579273,38.1652047 298.826617,37.0394737 C298.07396,35.9137427 297.185185,35.0855263 296.160291,34.5548246 C295.135398,34.0241228 294.158546,33.7587719 293.229736,33.7587719 C292.493094,33.7587719 291.252011,34.1929825 289.506489,35.0614035 C287.760967,35.9298246 286.263661,36.9751462 285.014572,38.1973684 C284.438069,36.75 283.549294,35.6483918 282.348247,34.8925439 C281.147199,34.1366959 279.970173,33.7587719 278.817168,33.7587719 C278.112553,33.7587719 276.959548,34.1527778 275.358151,34.9407895 C273.756755,35.7288012 272.315498,36.6856725 271.034381,37.8114035 C270.874241,36.6856725 270.626025,35.7288012 270.289731,34.9407895 C269.953438,34.1527778 269.625152,33.6944444 269.304872,33.5657895 C269.048649,33.4371345 268.279979,33.6622807 266.998862,34.2412281 C265.717744,34.8201754 264.412606,35.5277778 263.083447,36.3640351 C261.754288,37.2002924 260.817471,37.9883041 260.272996,38.7280702 L260.272996,38.7280702 L260.561248,39.0175439 C261.586141,39.0175439 262.30677,39.1703216 262.723133,39.4758772 C263.139496,39.7814327 263.387713,40.255848 263.467782,40.8991228 C263.547852,41.5423977 263.587887,42.6681287 263.587887,44.2763158 L263.587887,44.2763158 L263.587887,56.0482456 C263.459775,57.3026316 262.659077,58.1710526 261.185792,58.6535088 L261.185792,58.6535088 L261.185792,59.1842105 L273.580601,59.1842105 Z M310.476776,59.4254386 C311.18139,59.4254386 312.262333,59.2163743 313.719604,58.7982456 C315.176875,58.380117 316.530055,57.8172515 317.779144,57.1096491 C318.003339,56.9809942 318.307605,56.7880117 318.69194,56.5307018 C318.884107,57.2704678 319.108303,57.8815789 319.364526,58.3640351 C319.62075,58.8464912 319.860959,59.1359649 320.085155,59.2324561 C320.373406,59.3611111 321.174104,59.1600877 322.48725,58.629386 C323.800395,58.0986842 325.11354,57.4071637 326.426685,56.5548246 C327.73983,55.7024854 328.636612,54.874269 329.117031,54.0701754 L329.117031,54.0701754 L328.82878,53.7807018 C327.803886,53.7807018 327.083257,53.627924 326.666894,53.3223684 C326.250531,53.0168129 326.002315,52.5423977 325.922245,51.8991228 C325.842175,51.255848 325.80214,50.130117 325.80214,48.5219298 L325.80214,44.7587719 C325.770112,42.1856725 325.577945,40.1030702 325.225638,38.5109649 C324.87333,36.9188596 324.192737,35.6966374 323.183857,34.8442982 C322.174977,33.9919591 320.709699,33.5657895 318.788024,33.5657895 C317.76313,33.5657895 316.802292,33.6461988 315.90551,33.8070175 C314.20803,34.0964912 312.43048,34.9488304 310.57286,36.3640351 C308.71524,37.7792398 307.033774,39.3230994 305.528461,40.995614 C305.208182,41.3494152 305.048042,41.7675439 305.048042,42.25 C305.048042,42.8289474 305.272237,43.4320175 305.720628,44.0592105 C306.169019,44.6864035 306.69748,45 307.306011,45 C307.690346,45.0321637 308.114716,44.9195906 308.579121,44.6622807 C309.043526,44.4049708 309.435868,44.0592105 309.756148,43.625 C310.076427,43.1907895 310.236566,42.7163743 310.236566,42.2017544 C310.236566,41.9766082 310.188525,41.6790936 310.092441,41.3092105 C309.996357,40.9393275 309.932301,40.6739766 309.900273,40.5131579 C309.64405,39.6769006 309.515938,39.0818713 309.515938,38.7280702 C309.515938,38.374269 309.628036,38.1008772 309.852231,37.9078947 C310.076427,37.7149123 310.33265,37.5942982 310.620902,37.5460526 C310.909153,37.497807 311.325516,37.4736842 311.869991,37.4736842 C313.055024,37.4736842 314.079918,37.5540936 314.944672,37.7149123 C315.809426,37.875731 316.57009,38.2938596 317.226662,38.9692982 C317.883235,39.6447368 318.211521,40.6900585 318.211521,42.1052632 L318.211521,42.1052632 L318.211521,43.5526316 C315.168868,44.0350877 312.502543,44.7668129 310.212546,45.747807 C307.922549,46.7288012 306.281117,47.9751462 305.288251,49.4868421 C304.711749,50.3874269 304.423497,51.4005848 304.423497,52.5263158 C304.423497,53.6520468 304.743777,54.8581871 305.384335,56.1447368 C306.473285,58.3318713 308.170765,59.4254386 310.476776,59.4254386 Z M316.289845,56.3859649 C315.393063,56.3859649 314.544323,56.1527778 313.743625,55.6864035 C312.942927,55.2200292 312.286354,54.5687135 311.773907,53.7324561 C311.069293,52.6067251 310.716985,51.4809942 310.716985,50.3552632 C310.716985,49.4868421 310.925167,48.7068713 311.34153,48.0153509 C311.757893,47.3238304 312.334396,46.752924 313.071038,46.3026316 C314.416211,45.5307018 316.129706,44.9195906 318.211521,44.4692982 L318.211521,44.4692982 L318.211521,52.7192982 C318.211521,53.9093567 318.307605,54.9385965 318.499772,55.8070175 C318.467744,55.8391813 318.355647,55.9035088 318.163479,56 C317.490893,56.2573099 316.866348,56.3859649 316.289845,56.3859649 Z M336.515483,31.4912281 C337.732544,31.4912281 338.733417,31.0972222 339.518101,30.3092105 C340.302785,29.5211988 340.695128,28.5 340.695128,27.245614 C340.695128,26.0233918 340.302785,25.0182749 339.518101,24.2302632 C338.733417,23.4422515 337.732544,23.0482456 336.515483,23.0482456 C335.266393,23.0482456 334.249507,23.4422515 333.464822,24.2302632 C332.680138,25.0182749 332.287796,26.0233918 332.287796,27.245614 C332.287796,28.5 332.680138,29.5211988 333.464822,30.3092105 C334.249507,31.0972222 335.266393,31.4912281 336.515483,31.4912281 Z M342.953097,59.1842105 L342.953097,58.6535088 C341.479812,58.1710526 340.679114,57.3026316 340.551002,56.0482456 L340.551002,56.0482456 L340.551002,38.1008772 C340.551002,36.4605263 340.50296,35.2865497 340.406876,34.5789474 C340.310792,33.871345 340.102611,33.5175439 339.782332,33.5175439 C339.301913,33.5175439 338.325061,33.8070175 336.851776,34.3859649 C335.378491,34.9649123 333.937234,35.6564327 332.528005,36.4605263 C331.118777,37.2646199 330.157939,38.0204678 329.645492,38.7280702 L329.645492,38.7280702 L329.933743,39.0175439 C330.894581,39.0175439 331.583182,39.1622807 331.999545,39.4517544 C332.415908,39.7412281 332.680138,40.1834795 332.792236,40.7785088 C332.904334,41.373538 332.960383,42.3625731 332.960383,43.745614 L332.960383,43.745614 L332.960383,56.0482456 C332.832271,57.3026316 332.031573,58.1710526 330.558288,58.6535088 L330.558288,58.6535088 L330.558288,59.1842105 L342.953097,59.1842105 Z M357.461749,59.1842105 L357.461749,58.6535088 C355.988464,58.1710526 355.187766,57.3026316 355.059654,56.0482456 L355.059654,56.0482456 L355.011612,28.3552632 C355.011612,26.3932749 354.971577,25.0102339 354.891507,24.2061404 C354.811437,23.4020468 354.595249,23 354.242942,23 C353.762523,23 352.785671,23.2894737 351.312386,23.8684211 C349.839101,24.4473684 348.397845,25.1388889 346.988616,25.9429825 C345.579387,26.747076 344.618549,27.502924 344.106102,28.2105263 L344.106102,28.2105263 L344.394353,28.5 C345.419247,28.5 346.139876,28.6527778 346.556239,28.9583333 C346.972602,29.2638889 347.220818,29.7383041 347.300888,30.3815789 C347.380958,31.0248538 347.420993,32.1505848 347.420993,33.7587719 L347.420993,33.7587719 L347.420993,37.5219298 L347.469035,56.0482456 C347.340923,57.3026316 346.540225,58.1710526 345.06694,58.6535088 L345.06694,58.6535088 L345.06694,59.1842105 L357.461749,59.1842105 Z M389.217441,59.1842105 L389.217441,58.5570175 C388.544854,58.2997076 387.92031,57.9539474 387.343807,57.5197368 C386.767304,57.0855263 386.431011,56.3859649 386.334927,55.4210526 L386.334927,55.4210526 L386.334927,46.3991228 C387.295765,46.7207602 388.192547,46.8815789 389.025273,46.8815789 C391.203172,46.8815789 393.437121,46.4554094 395.727117,45.6030702 C398.017114,44.750731 399.954804,43.3998538 401.540187,41.5504386 C403.125569,39.7010234 403.91826,37.3932749 403.91826,34.627193 C403.91826,31.8932749 403.285709,29.8187135 402.020606,28.4035088 C400.755502,26.9883041 399.058022,26.0555556 396.928165,25.6052632 C394.798308,25.1549708 392.08394,24.9298246 388.785064,24.9298246 L388.785064,24.9298246 L374.804872,24.9298246 L374.804872,25.4605263 C376.278157,25.9429825 377.078855,26.8114035 377.206967,28.0657895 L377.206967,28.0657895 L377.206967,55.4210526 C377.110883,56.3859649 376.77459,57.0855263 376.198087,57.5197368 C375.621585,57.9539474 374.99704,58.2997076 374.324454,58.5570175 L374.324454,58.5570175 L374.324454,59.1842105 L389.217441,59.1842105 Z M388.160519,45.7236842 C387.455905,45.7236842 386.847374,45.5307018 386.334927,45.1447368 L386.334927,45.1447368 L386.334927,28.7412281 C386.334927,27.5833333 386.495067,26.8114035 386.815346,26.4254386 C387.135625,26.0394737 387.792198,25.8464912 388.785064,25.8464912 C390.034153,25.8464912 391.331284,26.369152 392.676457,27.4144737 C394.02163,28.4597953 394.694217,30.7836257 394.694217,34.3859649 C394.694217,37.6023392 394.253833,40.0467836 393.373065,41.7192982 C392.492297,43.3918129 391.55548,44.4773392 390.562614,44.9758772 C389.569748,45.4744152 388.76905,45.7236842 388.160519,45.7236842 Z M416.216985,59.4254386 C418.587052,59.4254386 420.700896,58.8866959 422.558515,57.8092105 C424.416135,56.7317251 425.865399,55.2280702 426.906307,53.2982456 C427.947215,51.3684211 428.467668,49.1812865 428.467668,46.7368421 C428.435641,42.4269006 427.346691,39.1140351 425.20082,36.7982456 C423.054948,34.4824561 420.044323,33.3245614 416.168944,33.3245614 C413.798877,33.3245614 411.685033,33.871345 409.827413,34.9649123 C407.969794,36.0584795 406.52053,37.6103801 405.479622,39.620614 C404.438714,41.630848 403.91826,43.9707602 403.91826,46.6403509 C403.91826,50.6608187 404.999203,53.7967836 407.161088,56.0482456 C409.322974,58.2997076 412.341606,59.4254386 416.216985,59.4254386 Z M416.457195,58.7017544 C415.848664,58.7017544 415.22412,58.2675439 414.583561,57.3991228 C413.943002,56.5307018 413.374507,55.2119883 412.878074,53.4429825 C412.381641,51.6739766 412.069369,49.5190058 411.941257,46.9780702 C411.909229,46.4634503 411.893215,45.7397661 411.893215,44.8070175 C411.893215,42.4912281 412.093389,40.5211988 412.493739,38.8969298 C412.894088,37.2726608 413.398528,36.0584795 414.007058,35.254386 C414.615589,34.4502924 415.22412,34.0482456 415.83265,34.0482456 C416.505237,34.0482456 417.169816,34.5146199 417.826389,35.4473684 C418.482961,36.380117 419.051457,37.7872807 419.531876,39.6688596 C420.012295,41.5504386 420.31656,43.8581871 420.444672,46.5921053 C420.4767,46.9780702 420.492714,47.5248538 420.492714,48.2324561 C420.492714,50.4195906 420.284532,52.3011696 419.868169,53.877193 C419.451806,55.4532164 418.931352,56.6513158 418.306808,57.4714912 C417.682263,58.2916667 417.065726,58.7017544 416.457195,58.7017544 Z M443.024362,67 L443.024362,66.4692982 C441.551078,65.9868421 440.750379,65.1184211 440.622268,63.8640351 L440.622268,63.8640351 L440.622268,56.9166667 C441.006603,57.6564327 441.687196,58.2595029 442.664048,58.7258772 C443.6409,59.1922515 444.465619,59.4254386 445.138206,59.4254386 C447.155965,59.4254386 449.125683,58.8464912 451.047359,57.6885965 C452.969035,56.5307018 454.538403,54.9546784 455.755464,52.9605263 C456.972526,50.9663743 457.581056,48.7631579 457.581056,46.3508772 C457.581056,43.874269 457.092631,41.6630117 456.115779,39.7171053 C455.138927,37.7711988 453.745712,36.2595029 451.936134,35.1820175 C450.126556,34.1045322 448.004706,33.5657895 445.570583,33.5657895 C443.488767,33.5657895 441.823315,34.5628655 440.574226,36.5570175 L440.574226,36.5570175 L440.4301,36.5570175 C440.4301,34.2412281 440.173877,33.0833333 439.66143,33.0833333 C439.181011,33.0833333 438.220173,33.372807 436.778916,33.9517544 C435.337659,34.5307018 433.920423,35.2222222 432.527209,36.0263158 C431.133994,36.8304094 430.181163,37.5862573 429.668716,38.2938596 L429.668716,38.2938596 L429.956967,38.5833333 C430.981861,38.5833333 431.702489,38.7361111 432.118852,39.0416667 C432.535216,39.3472222 432.783432,39.8216374 432.863502,40.4649123 C432.943572,41.1081871 432.983607,42.2339181 432.983607,43.8421053 L432.983607,43.8421053 L432.983607,47.6052632 L433.031648,63.8640351 C432.903537,65.1184211 432.102838,65.9868421 430.629554,66.4692982 L430.629554,66.4692982 L430.629554,67 L443.024362,67 Z M444.705829,58.4605263 C444.193382,58.4605263 443.608872,58.3077485 442.9523,58.002193 C442.295727,57.6966374 441.711217,57.1016082 441.19877,56.2171053 C440.686324,55.3326023 440.4301,54.1023392 440.4301,52.5263158 L440.4301,52.5263158 L440.4301,41.622807 C440.59024,38.8888889 441.150729,37.0153509 442.111566,36.002193 C443.072404,34.9890351 444.033242,34.4824561 444.99408,34.4824561 C446.179114,34.4824561 447.163972,35.5599415 447.948657,37.7149123 C448.733341,39.869883 449.125683,42.9254386 449.125683,46.8815789 C449.125683,49.3581871 448.901488,51.4649123 448.453097,53.2017544 C448.004706,54.9385965 447.43621,56.249269 446.747609,57.1337719 C446.059009,58.0182749 445.378415,58.4605263 444.705829,58.4605263 Z M468.534608,59.6666667 C469.495446,59.6666667 470.744536,59.248538 472.281876,58.4122807 C473.819217,57.5760234 475.180404,56.5467836 476.365437,55.3245614 C476.557605,56.4824561 476.837849,57.4312865 477.20617,58.1710526 C477.574491,58.9108187 477.902778,59.2807018 478.191029,59.2807018 C478.607392,59.2807018 479.448125,58.9912281 480.713229,58.4122807 C481.978332,57.8333333 483.227421,57.1418129 484.460496,56.3377193 C485.693572,55.5336257 486.566333,54.7777778 487.07878,54.0701754 L487.07878,54.0701754 L486.790528,53.7807018 C485.82969,53.7807018 485.14109,53.6359649 484.724727,53.3464912 C484.308364,53.0570175 484.044133,52.6147661 483.932036,52.0197368 C483.819938,51.4247076 483.763889,50.4356725 483.763889,49.0526316 L483.763889,38.0526316 C483.763889,36.4122807 483.715847,35.2383041 483.619763,34.5307018 C483.523679,33.8230994 483.315498,33.4692982 482.995219,33.4692982 C482.5148,33.4692982 481.537948,33.7587719 480.064663,34.3377193 C478.591378,34.9166667 477.150121,35.6081871 475.740893,36.4122807 C474.331664,37.2163743 473.370826,37.9722222 472.858379,38.6798246 L472.858379,38.6798246 L473.14663,38.9692982 C474.107468,38.9692982 474.796069,39.1140351 475.212432,39.4035088 C475.628795,39.6929825 475.893025,40.1352339 476.005123,40.7302632 C476.117221,41.3252924 476.17327,42.3143275 476.17327,43.6973684 L476.17327,43.6973684 L476.17327,52.7192982 C476.17327,53.1052632 476.205298,53.619883 476.269353,54.2631579 C475.820962,54.8099415 475.332536,55.2361111 474.804076,55.5416667 C474.275615,55.8472222 473.755161,56 473.242714,56 C472.121736,56 471.18492,55.6381579 470.432263,54.9144737 C469.679607,54.1907895 469.303279,53.0891813 469.303279,51.6096491 L469.303279,51.6096491 L469.303279,38.0526316 C469.303279,36.4122807 469.255237,35.2383041 469.159153,34.5307018 C469.063069,33.8230994 468.854888,33.4692982 468.534608,33.4692982 C468.054189,33.4692982 467.077338,33.7587719 465.604053,34.3377193 C464.130768,34.9166667 462.689511,35.6081871 461.280282,36.4122807 C459.871053,37.2163743 458.910216,37.9722222 458.397769,38.6798246 L458.397769,38.6798246 L458.68602,38.9692982 C459.646858,38.9692982 460.335458,39.1140351 460.751821,39.4035088 C461.168185,39.6929825 461.432415,40.1352339 461.544513,40.7302632 C461.656611,41.3252924 461.712659,42.3143275 461.712659,43.6973684 L461.712659,43.6973684 L461.712659,51.9473684 C461.744687,53.619883 462.129022,55.0431287 462.865665,56.2171053 C463.602307,57.3910819 464.491082,58.2595029 465.53199,58.8223684 C466.572898,59.3852339 467.57377,59.6666667 468.534608,59.6666667 Z M501.443306,67 L501.443306,66.4692982 C499.970021,65.9868421 499.169323,65.1184211 499.041211,63.8640351 L499.041211,63.8640351 L499.041211,56.9166667 C499.425546,57.6564327 500.10614,58.2595029 501.082992,58.7258772 C502.059844,59.1922515 502.884563,59.4254386 503.557149,59.4254386 C505.574909,59.4254386 507.544627,58.8464912 509.466302,57.6885965 C511.387978,56.5307018 512.957347,54.9546784 514.174408,52.9605263 C515.391469,50.9663743 516,48.7631579 516,46.3508772 C516,43.874269 515.511574,41.6630117 514.534722,39.7171053 C513.55787,37.7711988 512.164655,36.2595029 510.355077,35.1820175 C508.545499,34.1045322 506.423649,33.5657895 503.989526,33.5657895 C501.907711,33.5657895 500.242259,34.5628655 498.993169,36.5570175 L498.993169,36.5570175 L498.849044,36.5570175 C498.849044,34.2412281 498.59282,33.0833333 498.080373,33.0833333 C497.599954,33.0833333 496.639117,33.372807 495.19786,33.9517544 C493.756603,34.5307018 492.339367,35.2222222 490.946152,36.0263158 C489.552937,36.8304094 488.600106,37.5862573 488.087659,38.2938596 L488.087659,38.2938596 L488.375911,38.5833333 C489.400804,38.5833333 490.121433,38.7361111 490.537796,39.0416667 C490.954159,39.3472222 491.202376,39.8216374 491.282445,40.4649123 C491.362515,41.1081871 491.40255,42.2339181 491.40255,43.8421053 L491.40255,43.8421053 L491.40255,47.6052632 L491.450592,63.8640351 C491.32248,65.1184211 490.521782,65.9868421 489.048497,66.4692982 L489.048497,66.4692982 L489.048497,67 L501.443306,67 Z M503.124772,58.4605263 C502.612325,58.4605263 502.027816,58.3077485 501.371243,58.002193 C500.714671,57.6966374 500.130161,57.1016082 499.617714,56.2171053 C499.105267,55.3326023 498.849044,54.1023392 498.849044,52.5263158 L498.849044,52.5263158 L498.849044,41.622807 C499.009183,38.8888889 499.569672,37.0153509 500.53051,36.002193 C501.491348,34.9890351 502.452186,34.4824561 503.413024,34.4824561 C504.598057,34.4824561 505.582916,35.5599415 506.3676,37.7149123 C507.152284,39.869883 507.544627,42.9254386 507.544627,46.8815789 C507.544627,49.3581871 507.320431,51.4649123 506.87204,53.2017544 C506.423649,54.9385965 505.855153,56.249269 505.166553,57.1337719 C504.477952,58.0182749 503.797359,58.4605263 503.124772,58.4605263 Z" id="PoliteEmailPopup-Copy" fill="#FFFFFF" fill-rule="nonzero"></path>
    </g>
</svg>