<?xml version="1.0" encoding="UTF-8"?>
<svg width="560px" height="80px" viewBox="0 0 560 80" version="1.1" xmlns="http://www.w3.org/2000/svg" xmlns:xlink="http://www.w3.org/1999/xlink">
    <title>polite-logo-flattened-purple</title>
    <defs>
        <radialGradient cx="50%" cy="51.2948843%" fx="50%" fy="51.2948843%" r="48.7051157%" id="radialGradient-1">
            <stop stop-color="#FEF7DB" offset="0%"></stop>
            <stop stop-color="#FCEDAB" offset="100%"></stop>
        </radialGradient>
        <polygon id="path-2" points="0 0.724294794 0 36.0311085 60 36.0311085 60 0.0311085135"></polygon>
    </defs>
    <g id="polite-logo-flattened-purple" stroke="none" stroke-width="1" fill="none" fill-rule="evenodd">
        <polygon id="Path-3-Copy" stroke="#4263EB" stroke-width="2.28799977" fill="#CCEDFF" stroke-linecap="square" points="11 31.6931863 11 67 72 67 72 31"></polygon>
        <path d="M61.375,10.625 L61.375,61.375 L19.625,61.375 L19.625,10.625 L61.375,10.625 Z" id="Rectangle-Copy" stroke="#E67700" stroke-width="2.75" fill="#FCEDAB" stroke-linecap="square"></path>
        <circle id="Oval" fill="url(#radialGradient-1)" opacity="0.7" cx="41" cy="25" r="13"></circle>
        <polygon id="Path-5-Copy" fill="#CCEDFF" points="14 35.6494593 14 65 69 65 69 34 40.5247623 54.4894795"></polygon>
        <g id="Group" transform="translate(11.000000, 31.000000)">
            <mask id="mask-3" fill="white">
                <use xlink:href="#path-2"></use>
            </mask>
            <use id="Path-3-Copy" fill="#CCEDFF" opacity="0" xlink:href="#path-2"></use>
            <polyline id="Path-4-Copy" stroke="#4263EB" stroke-width="2.94465586" stroke-linecap="round" stroke-linejoin="round" mask="url(#mask-3)" points="-3 1.03110851 30.2457848 22.0311085 62 1.03110851"></polyline>
            <line x1="0.319499894" y1="37.7648148" x2="20.8194999" y2="16.2231481" id="Path-6-Copy" stroke="#4263EB" stroke-width="2.94465586" mask="url(#mask-3)"></line>
            <line x1="38.5" y1="37.5" x2="60.5" y2="16.5" id="Path-6-Copy-2" stroke="#4263EB" stroke-width="2.94465586" mask="url(#mask-3)" transform="translate(49.500000, 27.031109) scale(-1, 1) translate(-49.500000, -27.031109) "></line>
        </g>
        <g id="face" transform="translate(32.000000, 21.000000)" fill="#E67700">
            <ellipse id="Oval" cx="2.68552625" cy="3.67493066" rx="2.68552625" ry="3.67493066"></ellipse>
            <ellipse id="Oval-Copy" cx="15.2650966" cy="3.67493066" rx="2.68552625" ry="3.67493066"></ellipse>
            <path d="M8.97531143,15.1225569 C11.0418388,15.1225569 13.6863699,14.8543631 15.7985854,13.4132531 C17.910801,11.9721431 16.8207031,14.2929921 16.2696844,15.1225569 C15.7186656,15.9521217 13.0388184,18.68 8.97531143,18.68 C4.91180449,18.68 2.8527832,16.3643188 1.979637,15.3361556 C1.1064908,14.3079925 0.273576945,12.3798169 2.20462712,13.5098056 C4.1356773,14.6397943 6.90878407,15.1225569 8.97531143,15.1225569 Z" id="Path-7"></path>
        </g>
        <path d="M109.828125,56 L109.992188,53.15625 L105.5625,52.3359375 C105.526042,52.1901042 105.480469,51.7617188 105.425781,51.0507812 C105.371094,50.3398438 105.316406,49.3919271 105.261719,48.2070312 C105.207031,47.0221354 105.179688,45.7005208 105.179688,44.2421875 L105.179688,44.2421875 L105.175,43.668 L105.261719,43.6816406 C105.407552,43.7044271 105.555664,43.7260742 105.706055,43.746582 L106.164062,43.8046875 C106.783854,43.8776042 107.403646,43.9140625 108.023438,43.9140625 C110.830729,43.9140625 113.227865,43.4492188 115.214844,42.5195312 C117.201823,41.5898438 118.723958,40.3229167 119.78125,38.71875 C120.838542,37.1145833 121.367188,35.3098958 121.367188,33.3046875 C121.367188,30.2786458 120.264323,27.9544271 118.058594,26.3320312 C115.852865,24.7096354 112.507812,23.8984375 108.023438,23.8984375 L108.023438,23.8984375 L94.1328125,23.8984375 L93.96875,26.6328125 L97.4140625,27.34375 C97.5234375,27.4895833 97.5963542,27.9453125 97.6328125,28.7109375 C97.6692708,29.4765625 97.7057292,30.4427083 97.7421875,31.609375 C97.7786458,32.7760417 97.796875,34.0520833 97.796875,35.4375 L97.796875,35.4375 L97.7421875,44.2421875 C97.7421875,45.7005208 97.7239583,47.0221354 97.6875,48.2070312 C97.6510417,49.3919271 97.6145833,50.3489583 97.578125,51.078125 C97.5416667,51.8072917 97.46875,52.2447917 97.359375,52.390625 L97.359375,52.390625 L94.1328125,53.265625 L94.296875,56 L109.828125,56 Z M108.023438,40.4140625 C107.257812,40.4140625 106.565104,40.3502604 105.945312,40.2226562 C105.738715,40.1801215 105.544271,40.1345486 105.361979,40.0859375 L105.153,40.027 L105.125,35.4375 C105.125,33.928125 105.132383,32.6328516 105.147148,31.5516797 L105.152344,31.1992188 C105.170573,30.0507812 105.188802,29.1302083 105.207031,28.4375 C105.22526,27.7447917 105.234375,27.2526042 105.234375,26.9609375 L105.234375,26.9609375 L106.765625,26.9609375 C108.84375,26.9609375 110.484375,27.5260417 111.6875,28.65625 C112.890625,29.7864583 113.492188,31.5729167 113.492188,34.015625 C113.492188,36.09375 113.018229,37.6796875 112.070312,38.7734375 C111.122396,39.8671875 109.773438,40.4140625 108.023438,40.4140625 Z M136.775304,56.4375 C139.108637,56.4375 141.214106,55.8723958 143.09171,54.7421875 C144.969314,53.6119792 146.473221,52.0898438 147.603429,50.1757812 C148.733637,48.2617188 149.298741,46.1015625 149.298741,43.6953125 C149.298741,41.3255208 148.77921,39.2200521 147.740148,37.3789062 C146.701085,35.5377604 145.260981,34.1067708 143.419835,33.0859375 C141.578689,32.0651042 139.436762,31.5546875 136.994054,31.5546875 C134.733637,31.5546875 132.600825,32.046875 130.595616,33.03125 C128.590408,34.015625 126.968012,35.4557292 125.728429,37.3515625 C124.488846,39.2473958 123.869054,41.5442708 123.869054,44.2421875 C123.869054,46.6119792 124.415929,48.7174479 125.509679,50.5585938 C126.603429,52.3997396 128.11645,53.8398438 130.048741,54.8789062 C131.981033,55.9179688 134.223221,56.4375 136.775304,56.4375 Z M137.322179,52.9375 C136.228429,52.9375 135.253168,52.4908854 134.396398,51.5976562 C133.539627,50.7044271 132.865148,49.4739583 132.37296,47.90625 C131.880773,46.3385417 131.634679,44.5885417 131.634679,42.65625 C131.634679,40.25 132.044835,38.3450521 132.865148,36.9414062 C133.68546,35.5377604 134.770096,34.8359375 136.119054,34.8359375 C137.796137,34.8359375 139.135981,35.8203125 140.138585,37.7890625 C141.141189,39.7578125 141.642491,42.3098958 141.642491,45.4453125 C141.642491,47.0130208 141.469314,48.3619792 141.12296,49.4921875 C140.776606,50.6223958 140.284418,51.4791667 139.646398,52.0625 C139.008377,52.6458333 138.233637,52.9375 137.322179,52.9375 Z M166.604565,56 L166.71394,53.4296875 L163.159252,52.5546875 C163.086336,52.1901042 163.031648,51.1236979 162.99519,49.3554688 C162.958731,47.5872396 162.940502,45.4270833 162.940502,42.875 L162.940502,42.875 L162.99519,34.8359375 C162.99519,32.2109375 163.004304,29.9869792 163.022533,28.1640625 C163.040763,26.3411458 163.068106,24.7096354 163.104565,23.2695312 C163.141023,21.8294271 163.195711,20.34375 163.268627,18.8125 L163.268627,18.8125 L161.737377,17.8828125 L151.292065,20.5625 L151.40144,22.9140625 L155.448315,23.4609375 C155.521231,24.0807292 155.575919,24.8554688 155.612377,25.7851562 C155.648836,26.7148438 155.676179,27.7539062 155.694408,28.9023438 C155.712638,30.0507812 155.730867,31.2447917 155.749096,32.484375 C155.767325,33.7239583 155.77644,34.9817708 155.77644,36.2578125 L155.77644,36.2578125 L155.77644,43.1484375 C155.77644,44.3880208 155.758211,45.6640625 155.721752,46.9765625 C155.685294,48.2890625 155.639721,49.4466146 155.585033,50.4492188 C155.530346,51.4518229 155.484773,52.1536458 155.448315,52.5546875 L155.448315,52.5546875 L151.893627,53.4296875 L152.05769,56 L166.604565,56 Z M175.748272,27.1796875 C177.243064,27.1796875 178.382387,26.7330729 179.166241,25.8398438 C179.950095,24.9466146 180.342022,23.9166667 180.342022,22.75 C180.342022,21.5833333 179.950095,20.5533854 179.166241,19.6601562 C178.382387,18.7669271 177.243064,18.3203125 175.748272,18.3203125 C174.25348,18.3203125 173.095928,18.7669271 172.275616,19.6601562 C171.455303,20.5533854 171.045147,21.5833333 171.045147,22.75 C171.045147,23.9166667 171.455303,24.9466146 172.275616,25.8398438 C173.095928,26.7330729 174.25348,27.1796875 175.748272,27.1796875 Z M182.967022,56 L183.131084,53.4296875 L179.521709,52.5546875 C179.412334,52.2630208 179.330303,51.5703125 179.275616,50.4765625 C179.220928,49.3828125 179.193584,48.234375 179.193584,47.03125 L179.193584,47.03125 L179.193584,40.140625 C179.193584,38.6458333 179.220928,37.3059896 179.275616,36.1210938 C179.330303,34.9361979 179.412334,33.7604167 179.521709,32.59375 L179.521709,32.59375 L178.045147,31.6640625 L167.982647,34.125 L167.982647,36.5859375 L171.646709,37.3515625 C171.829001,38.2994792 171.956605,39.2018229 172.029522,40.0585938 C172.102439,40.9153646 172.138897,41.890625 172.138897,42.984375 L172.138897,42.984375 L172.084209,47.0859375 C172.084209,47.9609375 172.06598,48.7903646 172.029522,49.5742188 C171.993064,50.3580729 171.956605,51.0143229 171.920147,51.5429688 C171.883689,52.0716146 171.84723,52.4088542 171.810772,52.5546875 L171.810772,52.5546875 L168.146709,53.4296875 L168.310772,56 L182.967022,56 Z M196.340806,56.546875 C198.127264,56.546875 199.740546,56.0820312 201.18065,55.1523438 C202.620754,54.2226562 203.614244,52.9739583 204.161119,51.40625 L204.161119,51.40625 L202.793931,49.8203125 C202.283514,50.2942708 201.700181,50.6588542 201.043931,50.9140625 C200.387681,51.1692708 199.731431,51.296875 199.075181,51.296875 C197.762681,51.296875 196.732733,50.96875 195.985337,50.3125 C195.237941,49.65625 194.864244,48.5625 194.864244,47.03125 L194.864244,47.03125 L194.961,35.493 L202.684556,35.4921875 L202.684556,32.046875 L195.002,32.047 L195.082994,26.359375 L193.387681,26.359375 L184.036119,33.796875 L184.036119,35.4921875 L187.864244,35.4921875 L187.700181,47.6875 C187.700181,50.640625 188.511379,52.8554688 190.133775,54.3320312 C191.756171,55.8085938 193.825181,56.546875 196.340806,56.546875 Z M217.403658,56.4375 C219.700533,56.4375 221.778658,55.8723958 223.638033,54.7421875 C225.497408,53.6119792 226.937512,51.953125 227.958345,49.765625 L227.958345,49.765625 L226.263033,48.1796875 C225.315116,49.2734375 224.330741,50.0481771 223.309908,50.5039062 C222.289075,50.9596354 221.158866,51.1875 219.919283,51.1875 C217.622408,51.1875 215.781262,50.4036458 214.395845,48.8359375 C213.218241,47.5033854 212.541119,45.8283984 212.364478,43.8109766 L212.348,43.586 L227.684908,43.5859375 L227.684908,42.2734375 C227.684908,39.1015625 226.809908,36.5221354 225.059908,34.5351562 C223.309908,32.5481771 220.812512,31.5546875 217.56772,31.5546875 C215.416679,31.5182292 213.402356,32.046875 211.524752,33.140625 C209.647147,34.234375 208.125012,35.7382812 206.958345,37.6523438 C205.791679,39.5664062 205.208345,41.7994792 205.208345,44.3515625 C205.208345,46.6484375 205.727877,48.7083333 206.766939,50.53125 C207.806002,52.3541667 209.246106,53.7942708 211.087252,54.8515625 C212.928397,55.9088542 215.033866,56.4375 217.403658,56.4375 Z M221.45,40.743 L212.339,40.743 L212.357027,40.4362793 C212.426906,39.479248 212.589955,38.6396936 212.846176,37.9176161 L212.946627,37.6523438 C213.365897,36.6132812 213.949231,35.8385417 214.696627,35.328125 C215.444022,34.8177083 216.25522,34.5625 217.13022,34.5625 C218.479179,34.5625 219.53647,35.0729167 220.302095,36.09375 C221.06772,37.1145833 221.450533,38.4635417 221.450533,40.140625 L221.450533,40.140625 L221.45,40.743 Z M268.569235,56.328125 L271.030172,47.46875 L267.912985,46.8671875 L264.905172,52.3359375 C264.649964,52.3723958 264.40387,52.4088542 264.166891,52.4453125 C263.929912,52.4817708 263.583558,52.5091146 263.127829,52.5273438 C262.672099,52.5455729 261.970277,52.5546875 261.02236,52.5546875 L258.123922,52.5546875 C257.030172,52.5546875 256.118714,52.5364583 255.389547,52.5 C254.660381,52.4635417 253.967672,52.390625 253.311422,52.28125 C253.311422,51.953125 253.302308,51.4882812 253.284079,50.8867188 C253.265849,50.2851562 253.24762,49.5286458 253.229391,48.6171875 C253.211162,47.7057292 253.202047,46.6666667 253.202047,45.5 L253.202,41.35 L253.284079,41.34375 C253.707907,41.3164062 254.147116,41.2993164 254.601706,41.2924805 L255.061422,41.2890625 L258.316848,41.289822 C258.899168,41.2923539 259.418193,41.3012153 259.873922,41.3164062 C260.420797,41.3346354 260.821839,41.3619792 261.077047,41.3984375 L261.077047,41.3984375 L261.623922,45.0625 L264.631735,45.0625 L264.631735,34.015625 L261.623922,34.015625 L261.077047,37.6796875 C260.821839,37.6796875 260.420797,37.6888021 259.873922,37.7070312 C259.327047,37.7252604 258.689027,37.734375 257.95986,37.734375 L257.95986,37.734375 L255.061422,37.734375 C254.441631,37.734375 253.849183,37.7161458 253.284079,37.6796875 L253.284079,37.6796875 L253.202,37.675 L253.202475,33.5584717 C253.204184,32.6595459 253.21102,31.8529053 253.222982,31.1385498 L253.229391,30.7890625 C253.24762,29.8776042 253.265849,29.1302083 253.284079,28.546875 C253.302308,27.9635417 253.311422,27.5260417 253.311422,27.234375 C253.712464,27.1614583 254.231995,27.1158854 254.870016,27.0976562 C255.508037,27.0794271 256.173402,27.0703125 256.86611,27.0703125 L256.86611,27.0703125 L261.02236,27.0703125 C261.45986,27.0703125 261.870016,27.0885417 262.252829,27.125 C262.635641,27.1614583 263.064027,27.234375 263.537985,27.34375 L263.537985,27.34375 L265.561422,32.15625 L268.733297,31.71875 L267.256735,23.625 C266.564027,23.6614583 265.71637,23.7070312 264.713766,23.7617188 C263.711162,23.8164062 262.690329,23.8528646 261.651266,23.8710938 C260.612204,23.8893229 259.728089,23.8984375 258.998922,23.8984375 L242.155172,23.8984375 L241.99111,26.6328125 L245.49111,27.5078125 C245.564027,27.6536458 245.627829,28.109375 245.682516,28.875 C245.737204,29.640625 245.782777,30.6341146 245.819235,31.8554688 C245.855693,33.0768229 245.873922,34.453125 245.873922,35.984375 L245.873922,43.96875 C245.873922,45.4270833 245.855693,46.7669271 245.819235,47.9882812 C245.782777,49.2096354 245.737204,50.203125 245.682516,50.96875 C245.627829,51.734375 245.564027,52.2083333 245.49111,52.390625 L245.49111,52.390625 L241.99111,53.265625 L242.155172,56 L260.967672,56 C262.134339,56 263.437724,56.0364583 264.877829,56.109375 C266.317933,56.1822917 267.548402,56.2552083 268.569235,56.328125 L268.569235,56.328125 Z M286.788337,56 L286.952399,53.484375 L283.944587,52.5546875 C283.835212,52.2630208 283.753181,51.5703125 283.698493,50.4765625 C283.643806,49.3828125 283.616462,48.234375 283.616462,47.03125 L283.616462,47.03125 L283.616462,38.9921875 C284.163337,38.2630208 284.837816,37.6888021 285.639899,37.2695312 C286.441983,36.8502604 287.262295,36.640625 288.100837,36.640625 C288.90292,36.640625 289.622972,36.8138021 290.260993,37.1601562 C290.899014,37.5065104 291.409431,38.0625 291.792243,38.828125 C292.175056,39.59375 292.366462,40.6328125 292.366462,41.9453125 L292.366462,41.9453125 L292.421149,47.0859375 C292.421149,47.7421875 292.412035,48.4348958 292.393806,49.1640625 C292.375576,49.8932292 292.348233,50.5494792 292.311774,51.1328125 C292.275316,51.7161458 292.220628,52.1901042 292.147712,52.5546875 L292.147712,52.5546875 L289.358649,53.484375 L289.522712,56 L302.538337,56 L302.702399,53.484375 L299.694587,52.5546875 C299.585212,52.2630208 299.512295,51.5703125 299.475837,50.4765625 C299.439378,49.3828125 299.421149,48.234375 299.421149,47.03125 L299.421149,47.03125 L299.311774,41.3984375 C299.311774,40.4095052 299.240246,39.4990794 299.09719,38.66716 L299.087,38.613 L299.22603,38.4554398 C299.650027,38.0017361 300.126686,37.6331019 300.656007,37.349537 L300.925056,37.2148438 C301.745368,36.8320312 302.593024,36.640625 303.468024,36.640625 C304.306566,36.640625 305.072191,36.8320312 305.764899,37.2148438 C306.457608,37.5976562 307.004483,38.2174479 307.405524,39.0742188 C307.806566,39.9309896 308.007087,41.0520833 308.007087,42.4375 L308.007087,42.4375 L308.116462,47.0859375 C308.116462,47.7057292 308.107347,48.3802083 308.089118,49.109375 C308.070889,49.8385417 308.043545,50.5039062 308.007087,51.1054688 C307.970628,51.7070312 307.915941,52.1901042 307.843024,52.5546875 L307.843024,52.5546875 L304.999274,53.484375 L305.163337,56 L318.616462,56 L318.780524,53.484375 L315.389899,52.5546875 C315.280524,52.2630208 315.207608,51.5703125 315.171149,50.4765625 C315.134691,49.3828125 315.116462,48.234375 315.116462,47.03125 L315.116462,47.03125 L315.007087,41.34375 C315.007087,39.3020833 314.642503,37.5429688 313.913337,36.0664062 C313.18417,34.5898438 312.154222,33.46875 310.823493,32.703125 C309.492764,31.9375 307.952399,31.5546875 306.202399,31.5546875 C304.488858,31.5546875 302.893806,32.0013021 301.417243,32.8945312 C300.362556,33.5325521 299.349721,34.3891369 298.378739,35.4642857 L298.133,35.743 L298.026758,35.5446429 C297.355999,34.3549107 296.504436,33.4330357 295.47207,32.7790179 L295.210212,32.6210938 C293.970628,31.9101562 292.639899,31.5546875 291.218024,31.5546875 C289.832608,31.5546875 288.510993,31.8919271 287.253181,32.5664062 C285.995368,33.2408854 284.783128,34.3255208 283.616462,35.8203125 L283.616462,35.8203125 L283.452399,35.765625 L283.780524,32.59375 L282.249274,31.6640625 L272.624274,34.125 L272.624274,36.5859375 L276.124274,37.3515625 C276.233649,37.9713542 276.324795,38.5820312 276.397712,39.1835938 C276.470628,39.7851562 276.525316,40.3867188 276.561774,40.9882812 C276.598233,41.5898438 276.616462,42.2552083 276.616462,42.984375 L276.616462,42.984375 L276.561774,47.0859375 C276.561774,47.9609375 276.543545,48.7903646 276.507087,49.5742188 C276.470628,50.3580729 276.43417,51.0143229 276.397712,51.5429688 C276.361253,52.0716146 276.324795,52.4088542 276.288337,52.5546875 L276.288337,52.5546875 L272.897712,53.484375 L273.061774,56 L286.788337,56 Z M339.367571,56.4375 C339.877988,56.4375 340.415748,56.3645833 340.980852,56.21875 C341.545956,56.0729167 342.138404,55.8723958 342.758196,55.6171875 L342.758196,55.6171875 L346.312883,54.03125 L346.312883,51.734375 L342.758196,51.078125 C342.575904,50.7135417 342.457415,50.2486979 342.402727,49.6835938 C342.34804,49.1184896 342.320696,48.3255208 342.320696,47.3046875 L342.320696,47.3046875 L342.484758,39.703125 C342.484758,37.2239583 341.527727,35.2460938 339.613665,33.7695312 C337.699602,32.2929688 335.138404,31.5546875 331.930071,31.5546875 C331.055071,31.6276042 330.052467,31.8919271 328.922258,32.3476562 C327.79205,32.8033854 326.689185,33.3502604 325.613665,33.9882812 C324.538144,34.6263021 323.6358,35.3098958 322.906633,36.0390625 C322.177467,36.7682292 321.812883,37.4791667 321.812883,38.171875 C321.812883,39.3020833 322.387102,40.1132812 323.53554,40.6054688 C324.683977,41.0976562 326.169654,41.1614583 327.992571,40.796875 L327.992571,40.796875 L328.266008,37.4609375 C328.338925,36.6588542 328.493873,36.1210938 328.730852,35.8476562 C328.967831,35.5742188 329.377988,35.4375 329.961321,35.4375 C330.872779,35.4375 331.72955,35.65625 332.531633,36.09375 C333.333717,36.53125 333.980852,37.0872396 334.47304,37.7617188 C334.965227,38.4361979 335.211321,39.15625 335.211321,39.921875 L335.211321,39.921875 L335.211321,41.890625 L326.625383,44.40625 C324.911842,44.9166667 323.644915,45.609375 322.824602,46.484375 C322.00429,47.359375 321.594133,48.4713542 321.594133,49.8203125 C321.594133,50.7317708 321.913144,51.6979167 322.551165,52.71875 C323.189185,53.7395833 324.118873,54.6145833 325.340227,55.34375 C326.561581,56.0729167 328.0108,56.4375 329.687883,56.4375 C330.781633,56.4375 331.920956,56.0455729 333.105852,55.2617188 C333.967595,54.691643 334.814874,53.9624763 335.647691,53.0742188 L335.845,52.859 L336.359758,54.25 C336.913925,55.6354167 337.846484,56.3627604 339.157434,56.4320313 L339.367571,56.4375 Z M332.476946,51.515625 C331.529029,51.515625 330.717831,51.1783854 330.043352,50.5039062 C329.368873,49.8294271 329.031633,49.0546875 329.031633,48.1796875 C329.031633,47.4869792 329.232154,46.921875 329.633196,46.484375 C330.034238,46.046875 330.672258,45.7552083 331.547258,45.609375 L331.547258,45.609375 L335.266008,44.953125 L335.266008,50.3125 C334.864967,50.7135417 334.427467,51.0143229 333.953508,51.2148438 C333.47955,51.4153646 332.987363,51.515625 332.476946,51.515625 Z M354.986273,27.1796875 C356.481064,27.1796875 357.620387,26.7330729 358.404242,25.8398438 C359.188096,24.9466146 359.580023,23.9166667 359.580023,22.75 C359.580023,21.5833333 359.188096,20.5533854 358.404242,19.6601562 C357.620387,18.7669271 356.481064,18.3203125 354.986273,18.3203125 C353.491481,18.3203125 352.333929,18.7669271 351.513617,19.6601562 C350.693304,20.5533854 350.283148,21.5833333 350.283148,22.75 C350.283148,23.9166667 350.693304,24.9466146 351.513617,25.8398438 C352.333929,26.7330729 353.491481,27.1796875 354.986273,27.1796875 Z M362.205023,56 L362.369085,53.4296875 L358.75971,52.5546875 C358.650335,52.2630208 358.568304,51.5703125 358.513617,50.4765625 C358.458929,49.3828125 358.431585,48.234375 358.431585,47.03125 L358.431585,47.03125 L358.431585,40.140625 C358.431585,38.6458333 358.458929,37.3059896 358.513617,36.1210938 C358.568304,34.9361979 358.650335,33.7604167 358.75971,32.59375 L358.75971,32.59375 L357.283148,31.6640625 L347.220648,34.125 L347.220648,36.5859375 L350.88471,37.3515625 C351.067002,38.2994792 351.194606,39.2018229 351.267523,40.0585938 C351.340439,40.9153646 351.376898,41.890625 351.376898,42.984375 L351.376898,42.984375 L351.32221,47.0859375 C351.32221,47.9609375 351.303981,48.7903646 351.267523,49.5742188 C351.231064,50.3580729 351.194606,51.0143229 351.158148,51.5429688 C351.121689,52.0716146 351.085231,52.4088542 351.048773,52.5546875 L351.048773,52.5546875 L347.38471,53.4296875 L347.548773,56 L362.205023,56 Z M378.422557,56 L378.531932,53.4296875 L374.977244,52.5546875 C374.904328,52.1901042 374.84964,51.1236979 374.813182,49.3554688 C374.776724,47.5872396 374.758494,45.4270833 374.758494,42.875 L374.758494,42.875 L374.813182,34.8359375 C374.813182,32.2109375 374.822296,29.9869792 374.840526,28.1640625 C374.858755,26.3411458 374.886099,24.7096354 374.922557,23.2695312 C374.959015,21.8294271 375.013703,20.34375 375.086619,18.8125 L375.086619,18.8125 L373.555369,17.8828125 L363.110057,20.5625 L363.219432,22.9140625 L367.266307,23.4609375 C367.339224,24.0807292 367.393911,24.8554688 367.430369,25.7851562 C367.466828,26.7148438 367.494171,27.7539062 367.512401,28.9023438 C367.53063,30.0507812 367.548859,31.2447917 367.567088,32.484375 C367.585317,33.7239583 367.594432,34.9817708 367.594432,36.2578125 L367.594432,36.2578125 L367.594432,43.1484375 C367.594432,44.3880208 367.576203,45.6640625 367.539744,46.9765625 C367.503286,48.2890625 367.457713,49.4466146 367.403026,50.4492188 C367.348338,51.4518229 367.302765,52.1536458 367.266307,52.5546875 L367.266307,52.5546875 L363.711619,53.4296875 L363.875682,56 L378.422557,56 Z M407.896336,56 L408.060398,53.15625 L403.630711,52.3359375 C403.594252,52.1901042 403.548679,51.7617188 403.493992,51.0507812 C403.439304,50.3398438 403.384617,49.3919271 403.329929,48.2070312 C403.275242,47.0221354 403.247898,45.7005208 403.247898,44.2421875 L403.247898,44.2421875 L403.243,43.668 L403.329929,43.6816406 C403.475763,43.7044271 403.623875,43.7260742 403.774265,43.746582 L404.232273,43.8046875 C404.852065,43.8776042 405.471856,43.9140625 406.091648,43.9140625 C408.89894,43.9140625 411.296075,43.4492188 413.283054,42.5195312 C415.270034,41.5898438 416.792169,40.3229167 417.849461,38.71875 C418.906752,37.1145833 419.435398,35.3098958 419.435398,33.3046875 C419.435398,30.2786458 418.332534,27.9544271 416.126804,26.3320312 C413.921075,24.7096354 410.576023,23.8984375 406.091648,23.8984375 L406.091648,23.8984375 L392.201023,23.8984375 L392.036961,26.6328125 L395.482273,27.34375 C395.591648,27.4895833 395.664565,27.9453125 395.701023,28.7109375 C395.737481,29.4765625 395.77394,30.4427083 395.810398,31.609375 C395.846856,32.7760417 395.865086,34.0520833 395.865086,35.4375 L395.865086,35.4375 L395.810398,44.2421875 C395.810398,45.7005208 395.792169,47.0221354 395.755711,48.2070312 C395.719252,49.3919271 395.682794,50.3489583 395.646336,51.078125 C395.609877,51.8072917 395.536961,52.2447917 395.427586,52.390625 L395.427586,52.390625 L392.201023,53.265625 L392.365086,56 L407.896336,56 Z M406.091648,40.4140625 C405.326023,40.4140625 404.633315,40.3502604 404.013523,40.2226562 C403.806926,40.1801215 403.612481,40.1345486 403.43019,40.0859375 L403.221,40.027 L403.193211,35.4375 C403.193211,33.928125 403.200593,32.6328516 403.215359,31.5516797 L403.220554,31.1992188 C403.238784,30.0507812 403.257013,29.1302083 403.275242,28.4375 C403.293471,27.7447917 403.302586,27.2526042 403.302586,26.9609375 L403.302586,26.9609375 L404.833836,26.9609375 C406.911961,26.9609375 408.552586,27.5260417 409.755711,28.65625 C410.958836,29.7864583 411.560398,31.5729167 411.560398,34.015625 C411.560398,36.09375 411.08644,37.6796875 410.138523,38.7734375 C409.190606,39.8671875 407.841648,40.4140625 406.091648,40.4140625 Z M434.843514,56.4375 C437.176848,56.4375 439.282317,55.8723958 441.159921,54.7421875 C443.037525,53.6119792 444.541431,52.0898438 445.671639,50.1757812 C446.801848,48.2617188 447.366952,46.1015625 447.366952,43.6953125 C447.366952,41.3255208 446.847421,39.2200521 445.808358,37.3789062 C444.769296,35.5377604 443.329192,34.1067708 441.488046,33.0859375 C439.6469,32.0651042 437.504973,31.5546875 435.062264,31.5546875 C432.801848,31.5546875 430.669035,32.046875 428.663827,33.03125 C426.658619,34.015625 425.036223,35.4557292 423.796639,37.3515625 C422.557056,39.2473958 421.937264,41.5442708 421.937264,44.2421875 C421.937264,46.6119792 422.484139,48.7174479 423.577889,50.5585938 C424.671639,52.3997396 426.18466,53.8398438 428.116952,54.8789062 C430.049244,55.9179688 432.291431,56.4375 434.843514,56.4375 Z M435.390389,52.9375 C434.296639,52.9375 433.321379,52.4908854 432.464608,51.5976562 C431.607837,50.7044271 430.933358,49.4739583 430.441171,47.90625 C429.948983,46.3385417 429.702889,44.5885417 429.702889,42.65625 C429.702889,40.25 430.113046,38.3450521 430.933358,36.9414062 C431.753671,35.5377604 432.838306,34.8359375 434.187264,34.8359375 C435.864348,34.8359375 437.204192,35.8203125 438.206796,37.7890625 C439.2094,39.7578125 439.710702,42.3098958 439.710702,45.4453125 C439.710702,47.0130208 439.537525,48.3619792 439.191171,49.4921875 C438.844817,50.6223958 438.352629,51.4791667 437.714608,52.0625 C437.076587,52.6458333 436.301848,52.9375 435.390389,52.9375 Z M465.329025,68.03125 L465.493088,65.4609375 L461.008713,64.5859375 C460.972254,64.2942708 460.926682,63.6197917 460.871994,62.5625 C460.817307,61.5052083 460.789963,60.375 460.789963,59.171875 L460.789963,59.171875 L460.789963,55.7265625 C461.409754,55.9453125 462.05689,56.109375 462.731369,56.21875 C463.405848,56.328125 464.052984,56.3828125 464.672775,56.3828125 C467.40715,56.3828125 469.786057,55.7630208 471.809494,54.5234375 C473.832932,53.2838542 475.391525,51.6432292 476.485275,49.6015625 C477.579025,47.5598958 478.1259,45.3541667 478.1259,42.984375 C478.1259,40.5416667 477.651942,38.4726562 476.704025,36.7773438 C475.756109,35.0820312 474.52564,33.7877604 473.012619,32.8945312 C471.499598,32.0013021 469.868088,31.5546875 468.118088,31.5546875 C466.659754,31.5546875 465.274338,31.9557292 463.961838,32.7578125 C462.649338,33.5598958 461.555588,34.6354167 460.680588,35.984375 L460.680588,35.984375 L460.516525,35.9296875 L460.954025,32.59375 L459.422775,31.6640625 L449.797775,34.125 L449.797775,36.5859375 L453.297775,37.3515625 C453.480067,38.2994792 453.607671,39.2018229 453.680588,40.0585938 C453.753504,40.9153646 453.789963,41.8723958 453.789963,42.9296875 L453.789963,42.9296875 L453.680588,53.8125 C453.680588,55.015625 453.662359,56.21875 453.6259,57.421875 C453.589442,58.625 453.552984,59.71875 453.516525,60.703125 C453.480067,61.6875 453.443609,62.5260417 453.40715,63.21875 C453.370692,63.9114583 453.352463,64.3671875 453.352463,64.5859375 L453.352463,64.5859375 L449.961838,65.515625 L450.1259,68.03125 L465.329025,68.03125 Z M464.727463,52.5 C464.034754,52.5 463.342046,52.390625 462.649338,52.171875 C461.956629,51.953125 461.336838,51.6796875 460.789963,51.3515625 L460.789963,51.3515625 L460.789963,38.8828125 C461.336838,38.2265625 461.965744,37.7070312 462.676682,37.3242188 C463.387619,36.9414062 464.1259,36.75 464.891525,36.75 C465.8759,36.75 466.787359,37.0234375 467.6259,37.5703125 C468.464442,38.1171875 469.15715,38.9648438 469.704025,40.1132812 C470.2509,41.2617188 470.506109,42.7838542 470.46965,44.6796875 C470.506109,46.5026042 470.269129,47.9973958 469.758713,49.1640625 C469.248296,50.3307292 468.564702,51.1783854 467.707932,51.7070312 C466.851161,52.2356771 465.857671,52.5 464.727463,52.5 Z M501.977815,56.7109375 L511.27469,54.1953125 L511.27469,51.84375 L507.665315,51.0234375 C507.55594,49.9661458 507.483023,48.9361979 507.446565,47.9335938 C507.410106,46.9309896 507.391877,45.9921875 507.391877,45.1171875 L507.391877,45.1171875 L507.391877,37.296875 C507.391877,36.3125 507.410106,35.4375 507.446565,34.671875 C507.483023,33.90625 507.519481,33.2135417 507.55594,32.59375 L507.55594,32.59375 L506.079377,31.6640625 L496.18094,34.125 L496.18094,36.5859375 L500.063752,37.3515625 C500.136669,37.9713542 500.200471,38.5820312 500.255158,39.1835938 C500.309846,39.7851562 500.33719,40.4231771 500.33719,41.0976562 L500.33719,41.0976562 L500.33719,48.7265625 C499.790315,49.6380208 499.134065,50.2942708 498.36844,50.6953125 C497.602815,51.0963542 496.83719,51.296875 496.071565,51.296875 C494.64969,51.296875 493.519481,50.859375 492.68094,49.984375 C491.842398,49.109375 491.423127,47.7239583 491.423127,45.828125 L491.423127,45.828125 L491.477815,41.234375 C491.477815,39.6302083 491.505158,38.0625 491.559846,36.53125 C491.614533,35 491.678336,33.6875 491.751252,32.59375 L491.751252,32.59375 L490.220002,31.6640625 L480.376252,34.125 L480.376252,36.5859375 L484.095002,37.3515625 C484.167919,38.1171875 484.222606,38.8828125 484.259065,39.6484375 C484.295523,40.4140625 484.313752,41.1979167 484.313752,42 L484.313752,42 L484.313752,46.6484375 C484.313752,49.9296875 485.134065,52.3997396 486.77469,54.0585938 C488.415315,55.7174479 490.548127,56.546875 493.173127,56.546875 C494.485627,56.546875 495.752554,56.2096354 496.973908,55.5351562 C498.195263,54.8606771 499.334586,53.6848958 500.391877,52.0078125 L500.391877,52.0078125 L500.55594,52.0625 L500.501252,55.890625 L501.977815,56.7109375 Z M527.992602,68.03125 L528.156665,65.4609375 L523.67229,64.5859375 C523.635832,64.2942708 523.590259,63.6197917 523.535571,62.5625 C523.480884,61.5052083 523.45354,60.375 523.45354,59.171875 L523.45354,59.171875 L523.45354,55.7265625 C524.073332,55.9453125 524.720467,56.109375 525.394946,56.21875 C526.069425,56.328125 526.716561,56.3828125 527.336352,56.3828125 C530.070727,56.3828125 532.449634,55.7630208 534.473071,54.5234375 C536.496509,53.2838542 538.055102,51.6432292 539.148852,49.6015625 C540.242602,47.5598958 540.789477,45.3541667 540.789477,42.984375 C540.789477,40.5416667 540.315519,38.4726562 539.367602,36.7773438 C538.419686,35.0820312 537.189217,33.7877604 535.676196,32.8945312 C534.163175,32.0013021 532.531665,31.5546875 530.781665,31.5546875 C529.323332,31.5546875 527.937915,31.9557292 526.625415,32.7578125 C525.312915,33.5598958 524.219165,34.6354167 523.344165,35.984375 L523.344165,35.984375 L523.180102,35.9296875 L523.617602,32.59375 L522.086352,31.6640625 L512.461352,34.125 L512.461352,36.5859375 L515.961352,37.3515625 C516.143644,38.2994792 516.271248,39.2018229 516.344165,40.0585938 C516.417082,40.9153646 516.45354,41.8723958 516.45354,42.9296875 L516.45354,42.9296875 L516.344165,53.8125 C516.344165,55.015625 516.325936,56.21875 516.289477,57.421875 C516.253019,58.625 516.216561,59.71875 516.180102,60.703125 C516.143644,61.6875 516.107186,62.5260417 516.070727,63.21875 C516.034269,63.9114583 516.01604,64.3671875 516.01604,64.5859375 L516.01604,64.5859375 L512.625415,65.515625 L512.789477,68.03125 L527.992602,68.03125 Z M527.39104,52.5 C526.698332,52.5 526.005623,52.390625 525.312915,52.171875 C524.620207,51.953125 524.000415,51.6796875 523.45354,51.3515625 L523.45354,51.3515625 L523.45354,38.8828125 C524.000415,38.2265625 524.629321,37.7070312 525.340259,37.3242188 C526.051196,36.9414062 526.789477,36.75 527.555102,36.75 C528.539477,36.75 529.450936,37.0234375 530.289477,37.5703125 C531.128019,38.1171875 531.820727,38.9648438 532.367602,40.1132812 C532.914477,41.2617188 533.169686,42.7838542 533.133227,44.6796875 C533.169686,46.5026042 532.932707,47.9973958 532.42229,49.1640625 C531.911873,50.3307292 531.228279,51.1783854 530.371509,51.7070312 C529.514738,52.2356771 528.521248,52.5 527.39104,52.5 Z" id="PoliteEmailPopup" fill="#4263EB" fill-rule="nonzero"></path>
    </g>
</svg>