<?xml version="1.0" encoding="UTF-8"?>
<svg width="1080px" height="766px" viewBox="0 0 1080 766" version="1.1" xmlns="http://www.w3.org/2000/svg" xmlns:xlink="http://www.w3.org/1999/xlink">
    <title>polite-pitch</title>
    <defs>
        <radialGradient cx="50%" cy="51.2948843%" fx="50%" fy="51.2948843%" r="48.7051157%" id="radialGradient-1">
            <stop stop-color="#FEF7DB" offset="0%"></stop>
            <stop stop-color="#FCEDAB" offset="100%"></stop>
        </radialGradient>
        <polygon id="path-2" points="0 1.15887169 0 57.6497745 96.0000014 57.6497745 96.0000014 0.0497736224"></polygon>
    </defs>
    <g id="polite-pitch" stroke="none" stroke-width="1" fill="none" fill-rule="evenodd">
        <rect fill="#FFF4E6" x="0" y="0" width="1080" height="766"></rect>
        <text id="You-don’t-want-to-be" font-family="Lato-Bold, Lato" font-size="38" font-weight="bold">
            <tspan x="67" y="103" fill="#212529">You don’t want to be awkward and ask for someone’s </tspan>
            <tspan x="67" y="149" fill="#212529">email before they have a chance to get to know you.</tspan>
            <tspan x="67" y="195" fill="#212529"></tspan>
            <tspan x="67" y="241" fill="#212529">Wouldn’t it be great if you could tell if a visitor was </tspan>
            <tspan x="67" y="287" fill="#212529">engaged with your content — and only then ask them </tspan>
            <tspan x="67" y="333" fill="#212529">for their email address?</tspan>
            <tspan x="67" y="379" fill="#212529"></tspan>
            <tspan x="67" y="425" fill="#212529">Announcing…</tspan>
            <tspan x="67" y="471" fill="#212529"></tspan>
            <tspan x="67" y="517" font-size="48" fill="#F03E92"></tspan>
            <tspan x="67" y="574" font-size="48" fill="#F03E92"></tspan>
            <tspan x="67" y="631" fill="#212529"></tspan>
            <tspan x="67" y="677" fill="#212529">Generate one for your website today!</tspan>
        </text>
        <g id="Group-2" transform="translate(116.000000, 486.000000)">
            <polygon id="Path-3-Copy" stroke="#4263EB" stroke-width="3.66079968" fill="#CCEDFF" stroke-linecap="square" points="0 31.5090985 0 88.0000013 97.6000015 88.0000013 97.6000015 30.4000005"></polygon>
            <path d="M80.6000012,-2.20000003 L80.6000012,79.0000012 L13.8000002,79.0000012 L13.8000002,-2.20000003 L80.6000012,-2.20000003 Z" id="Rectangle-Copy" stroke="#E67700" stroke-width="4.40000007" fill="#FCEDAB" stroke-linecap="square"></path>
            <circle id="Oval" fill="url(#radialGradient-1)" opacity="0.7" cx="48.0000007" cy="20.8000003" r="20.8000003"></circle>
            <polygon id="Path-5-Copy" fill="#CCEDFF" points="4.80000007 37.8391354 4.80000007 84.8000013 92.8000014 84.8000013 92.8000014 35.2000005 47.2396204 67.9831683"></polygon>
            <g id="Group" transform="translate(0.000000, 30.400000)">
                <mask id="mask-3" fill="white">
                    <use xlink:href="#path-2"></use>
                </mask>
                <use id="Path-3-Copy" fill="#CCEDFF" opacity="0" xlink:href="#path-2"></use>
                <polyline id="Path-4-Copy" stroke="#4263EB" stroke-width="4.71144945" stroke-linecap="round" stroke-linejoin="round" mask="url(#mask-3)" points="-4.80000007 1.64977365 48.3932563 35.2497741 99.2000015 1.64977365"></polyline>
                <line x1="0.511199838" y1="60.4237046" x2="33.3112003" y2="25.9570374" id="Path-6-Copy" stroke="#4263EB" stroke-width="4.71144945" mask="url(#mask-3)"></line>
                <line x1="61.6000009" y1="60.0000009" x2="96.8000014" y2="26.4000004" id="Path-6-Copy-2" stroke="#4263EB" stroke-width="4.71144945" mask="url(#mask-3)" transform="translate(79.200001, 43.249774) scale(-1, 1) translate(-79.200001, -43.249774) "></line>
            </g>
            <g id="face" transform="translate(33.600001, 14.400000)" fill="#E67700">
                <ellipse id="Oval" cx="4.29684207" cy="5.87988915" rx="4.29684207" ry="5.87988915"></ellipse>
                <ellipse id="Oval-Copy" cx="24.4241549" cy="5.87988915" rx="4.29684207" ry="5.87988915"></ellipse>
                <path d="M14.3604985,24.1960913 C17.6669423,24.1960913 21.8981922,23.7669814 25.2777371,21.4612053 C28.657282,19.1554292 26.9131254,22.8687876 26.0314954,24.1960913 C25.1498654,25.5233951 20.8621097,29.8880004 14.3604985,29.8880004 C7.8588873,29.8880004 4.56445319,26.1829105 3.16741925,24.5378494 C1.77038531,22.8927883 0.437723118,19.8077073 3.52740345,21.6156893 C6.61708378,23.4236713 11.0540547,24.1960913 14.3604985,24.1960913 Z" id="Path-7"></path>
            </g>
            <path d="M158.125002,70.400001 L158.387502,65.850001 L151.300002,64.5375003 C151.241669,64.3041676 151.168752,63.6187509 151.081252,62.4812509 C150.993752,61.3437509 150.906252,59.8270842 150.818752,57.9312509 C150.731252,56.0354175 150.687502,53.9208341 150.687502,51.5875008 L150.687502,51.5875008 L150.680002,50.6688008 L150.818752,50.6906258 C151.052086,50.7270841 151.289065,50.7617195 151.52969,50.794532 L152.262502,50.8875008 C153.254169,51.0041674 154.245836,51.0625008 155.237502,51.0625008 C159.729169,51.0625008 163.564586,50.3187507 166.743752,48.8312507 C169.922919,47.3437507 172.358336,45.3166673 174.050003,42.7500006 C175.741669,40.1833339 176.587503,37.2958339 176.587503,34.0875005 C176.587503,29.2458338 174.822919,25.5270837 171.293753,22.9312503 C167.764586,20.335417 162.412502,19.0375003 155.237502,19.0375003 L155.237502,19.0375003 L133.012502,19.0375003 L132.750002,23.4125003 L138.262502,24.5500004 C138.437502,24.7833337 138.554169,25.5125004 138.612502,26.7375004 C138.670835,27.9625004 138.729169,29.5083338 138.787502,31.3750005 C138.845835,33.2416672 138.875002,35.2833339 138.875002,37.5000006 L138.875002,37.5000006 L138.787502,51.5875008 C138.787502,53.9208341 138.758335,56.0354175 138.700002,57.9312509 C138.641669,59.8270842 138.583335,61.3583342 138.525002,62.5250009 C138.466669,63.6916676 138.350002,64.3916676 138.175002,64.625001 L138.175002,64.625001 L133.012502,66.025001 L133.275002,70.400001 L158.125002,70.400001 Z M155.237502,45.4625007 C154.012502,45.4625007 152.904169,45.3604173 151.912502,45.1562507 C151.581947,45.0881951 151.270836,45.0152784 150.979169,44.9375004 L150.644802,44.8432007 L150.600002,37.5000006 C150.600002,35.0850005 150.611815,33.012563 150.63544,31.282688 L150.643752,30.7187505 C150.672919,28.8812504 150.702086,27.4083337 150.731252,26.3000004 C150.760419,25.191667 150.775002,24.404167 150.775002,23.9375004 L150.775002,23.9375004 L153.225002,23.9375004 C156.550002,23.9375004 159.175002,24.841667 161.100002,26.6500004 C163.025002,28.4583338 163.987502,31.3166671 163.987502,35.2250005 C163.987502,38.5500006 163.229169,41.0875006 161.712502,42.8375006 C160.195836,44.5875007 158.037502,45.4625007 155.237502,45.4625007 Z M201.240489,71.1000011 C204.973823,71.1000011 208.342573,70.1958344 211.346739,68.387501 C214.350906,66.5791677 216.757156,64.143751 218.565489,61.0812509 C220.373823,58.0187509 221.277989,54.5625008 221.277989,50.7125008 C221.277989,46.920834 220.446739,43.552084 218.784239,40.6062506 C217.121739,37.6604172 214.817573,35.3708339 211.871739,33.7375005 C208.925906,32.1041671 205.498823,31.2875005 201.590489,31.2875005 C197.973822,31.2875005 194.561322,32.0750005 191.352989,33.6500005 C188.144656,35.2250005 185.548822,37.5291672 183.565489,40.5625006 C181.582156,43.595834 180.590489,47.270834 180.590489,51.5875008 C180.590489,55.3791675 181.465489,58.7479175 183.215489,61.6937509 C184.965489,64.6395843 187.386322,66.943751 190.477989,68.606251 C193.569656,70.268751 197.157156,71.1000011 201.240489,71.1000011 Z M202.115489,65.500001 C200.365489,65.500001 198.805072,64.7854176 197.434239,63.3562509 C196.063406,61.9270843 194.984239,59.9583342 194.196739,57.4500009 C193.409239,54.9416675 193.015489,52.1416674 193.015489,49.0500007 C193.015489,45.2000007 193.671739,42.152084 194.984239,39.9062506 C196.296739,37.6604172 198.032156,36.5375005 200.190489,36.5375005 C202.873823,36.5375005 205.017573,38.1125006 206.621739,41.2625006 C208.225906,44.4125007 209.027989,48.4958341 209.027989,53.5125008 C209.027989,56.0208342 208.750906,58.1791675 208.196739,59.9875009 C207.642573,61.7958343 206.855073,63.1666676 205.834239,64.100001 C204.813406,65.0333343 203.573823,65.500001 202.115489,65.500001 Z M248.967307,70.400001 L249.142307,66.287501 L243.454807,64.887501 C243.33814,64.3041676 243.25064,62.5979176 243.192307,59.7687509 C243.133974,56.9395842 243.104807,53.4833341 243.104807,49.4000007 L243.104807,49.4000007 L243.192307,36.5375005 C243.192307,32.3375005 243.20689,28.7791671 243.236057,25.8625004 C243.265224,22.9458337 243.308974,20.335417 243.367307,18.0312503 C243.42564,15.7270836 243.51314,13.3500002 243.629807,10.9000002 L243.629807,10.9000002 L241.179807,9.41250014 L224.467307,13.7000002 L224.642307,17.4625003 L231.117307,18.3375003 C231.233974,19.329167 231.321474,20.5687503 231.379807,22.0562503 C231.43814,23.5437504 231.48189,25.2062504 231.511057,27.0437504 C231.540224,28.8812504 231.56939,30.7916671 231.598557,32.7750005 C231.627724,34.7583339 231.642307,36.7708339 231.642307,38.8125006 L231.642307,38.8125006 L231.642307,49.8375007 C231.642307,51.8208341 231.61314,53.8625008 231.554807,55.9625008 C231.496474,58.0625009 231.423557,59.9145842 231.336057,61.5187509 C231.248557,63.1229176 231.17564,64.2458343 231.117307,64.887501 L231.117307,64.887501 L225.429807,66.287501 L225.692307,70.400001 L248.967307,70.400001 Z M263.597239,24.2875004 C265.988906,24.2875004 267.811822,23.572917 269.065989,22.1437503 C270.320156,20.7145836 270.947239,19.066667 270.947239,17.2000003 C270.947239,15.3333336 270.320156,13.6854169 269.065989,12.2562502 C267.811822,10.8270835 265.988906,10.1125002 263.597239,10.1125002 C261.205572,10.1125002 259.353489,10.8270835 258.040989,12.2562502 C256.728489,13.6854169 256.072239,15.3333336 256.072239,17.2000003 C256.072239,19.066667 256.728489,20.7145836 258.040989,22.1437503 C259.353489,23.572917 261.205572,24.2875004 263.597239,24.2875004 Z M275.147239,70.400001 L275.409739,66.287501 L269.634739,64.887501 C269.459739,64.4208343 269.328489,63.3125009 269.240989,61.5625009 C269.153489,59.8125009 269.109739,57.9750009 269.109739,56.0500008 L269.109739,56.0500008 L269.109739,45.0250007 C269.109739,42.633334 269.153489,40.4895839 269.240989,38.5937506 C269.328489,36.6979172 269.459739,34.8166672 269.634739,32.9500005 L269.634739,32.9500005 L267.272239,31.4625005 L251.172239,35.4000005 L251.172239,39.3375006 L257.034739,40.5625006 C257.326406,42.0791673 257.530572,43.5229173 257.647239,44.8937507 C257.763906,46.264584 257.822239,47.8250007 257.822239,49.5750007 L257.822239,49.5750007 L257.734739,56.1375008 C257.734739,57.5375009 257.705572,58.8645842 257.647239,60.1187509 C257.588906,61.3729176 257.530572,62.4229176 257.472239,63.2687509 C257.413906,64.1145843 257.355572,64.6541676 257.297239,64.887501 L257.297239,64.887501 L251.434739,66.287501 L251.697239,70.400001 L275.147239,70.400001 Z M296.545294,71.2750011 C299.403627,71.2750011 301.984877,70.5312511 304.289044,69.043751 C306.593211,67.556251 308.182794,65.5583343 309.057794,63.0500009 L309.057794,63.0500009 L306.870294,60.5125009 C306.053628,61.2708342 305.120294,61.8541676 304.070294,62.2625009 C303.020294,62.6708343 301.970294,62.8750009 300.920294,62.8750009 C298.820294,62.8750009 297.172377,62.3500009 295.976544,61.3000009 C294.780711,60.2500009 294.182794,58.5000009 294.182794,56.0500008 L294.182794,56.0500008 L294.337604,37.5888006 L306.695294,37.5875006 L306.695294,32.0750005 L294.403204,32.0752005 L294.532794,22.9750003 L291.820294,22.9750003 L276.857794,34.8750005 L276.857794,37.5875006 L282.982794,37.5875006 L282.720294,57.1000009 C282.720294,61.8250009 284.018211,65.368751 286.614044,67.731251 C289.209877,70.093751 292.520294,71.2750011 296.545294,71.2750011 Z M330.245858,71.1000011 C333.920858,71.1000011 337.245858,70.1958344 340.220858,68.387501 C343.195858,66.5791677 345.500024,63.925001 347.133358,60.4250009 L347.133358,60.4250009 L344.420858,57.8875009 C342.904191,59.6375009 341.329191,60.8770842 339.695858,61.6062509 C338.062524,62.3354176 336.254191,62.7000009 334.270858,62.7000009 C330.595858,62.7000009 327.650024,61.4458342 325.433358,58.9375009 C323.549191,56.8054175 322.465795,54.1254383 322.18317,50.8975633 L322.156805,50.5376008 L346.695858,50.5375008 L346.695858,48.4375007 C346.695858,43.3625006 345.295858,39.2354173 342.495858,36.0562505 C339.695858,32.8770838 335.700024,31.2875005 330.508358,31.2875005 C327.066691,31.2291671 323.843774,32.0750005 320.839607,33.8250005 C317.835441,35.5750005 315.400024,37.9812506 313.533357,41.0437506 C311.666691,44.1062507 310.733357,47.6791674 310.733357,51.7625008 C310.733357,55.4375008 311.564607,58.7333342 313.227107,61.6500009 C314.889607,64.5666676 317.193774,66.8708343 320.139607,68.562501 C323.085441,70.2541677 326.454191,71.1000011 330.245858,71.1000011 Z M336.720005,45.9888007 L322.142405,45.9888007 L322.171248,45.4980476 C322.283054,43.9667975 322.543933,42.6235105 322.953887,41.4681864 L323.114607,41.0437506 C323.785441,39.3812506 324.718774,38.1416672 325.914608,37.3250006 C327.110441,36.5083339 328.408358,36.1000005 329.808358,36.1000005 C331.966691,36.1000005 333.658358,36.9166672 334.883358,38.5500006 C336.108358,40.1833339 336.720858,42.3416673 336.720858,45.0250007 L336.720858,45.0250007 L336.720005,45.9888007 Z M412.110782,70.9250011 L416.048282,56.7500008 L411.060782,55.7875008 L406.248282,64.537501 C405.839948,64.5958343 405.446198,64.6541676 405.067032,64.712501 C404.687865,64.7708343 404.133698,64.8145843 403.404532,64.843751 C402.675365,64.8729176 401.552448,64.887501 400.035782,64.887501 L395.398282,64.887501 C393.648282,64.887501 392.189948,64.8583343 391.023282,64.800001 C389.856615,64.7416676 388.748282,64.625001 387.698282,64.450001 C387.698282,63.925001 387.683698,63.1812509 387.654532,62.2187509 C387.625365,61.2562509 387.596198,60.0458342 387.567032,58.5875009 C387.537865,57.1291675 387.523282,55.4666675 387.523282,53.6000003 L387.523206,46.9600007 L387.654532,46.9500007 C388.332657,46.9062507 389.035391,46.8789069 389.762735,46.8679694 L390.498282,46.8625007 L395.706962,46.863716 C396.638675,46.8677669 397.469115,46.8819451 398.198282,46.9062507 C399.073282,46.9354174 399.714948,46.9791674 400.123282,47.0375007 L400.123282,47.0375007 L400.998282,52.9000008 L405.810782,52.9000008 L405.810782,35.2250005 L400.998282,35.2250005 L400.123282,41.0875006 C399.714948,41.0875006 399.073282,41.1020839 398.198282,41.1312506 C397.323282,41.1604173 396.302448,41.1750006 395.135782,41.1750006 L395.135782,41.1750006 L390.498282,41.1750006 C389.506615,41.1750006 388.558698,41.1458339 387.654532,41.0875006 L387.654532,41.0875006 L387.523206,41.0800006 L387.523965,34.4935552 C387.5267,33.0552739 387.537637,31.7646489 387.556778,30.6216801 L387.567032,30.0625004 C387.596198,28.6041671 387.625365,27.4083337 387.654532,26.4750004 C387.683698,25.541667 387.698282,24.841667 387.698282,24.3750004 C388.339948,24.2583337 389.171198,24.185417 390.192032,24.1562504 C391.212865,24.1270837 392.277448,24.1125004 393.385782,24.1125004 L393.385782,24.1125004 L400.035782,24.1125004 C400.735782,24.1125004 401.392032,24.141667 402.004532,24.2000004 C402.617032,24.2583337 403.302448,24.3750004 404.060782,24.5500004 L404.060782,24.5500004 L407.298282,32.2500005 L412.373282,31.5500005 L410.010782,18.6000003 C408.902449,18.6583336 407.546198,18.7312503 405.942032,18.8187503 C404.337865,18.9062503 402.704532,18.9645836 401.042032,18.9937503 C399.379532,19.022917 397.964948,19.0375003 396.798282,19.0375003 L369.848281,19.0375003 L369.585781,23.4125003 L375.185781,24.8125004 C375.302448,25.0458337 375.404531,25.7750004 375.492031,27.0000004 C375.579531,28.2250004 375.652448,29.8145838 375.710781,31.7687505 C375.769115,33.7229172 375.798281,35.9250005 375.798281,38.3750006 L375.798281,51.1500008 C375.798281,53.4833341 375.769115,55.6270842 375.710781,57.5812509 C375.652448,59.5354176 375.579531,61.1250009 375.492031,62.3500009 C375.404531,63.5750009 375.302448,64.3333343 375.185781,64.625001 L375.185781,64.625001 L369.585781,66.025001 L369.848281,70.400001 L399.948282,70.400001 C401.814948,70.400001 403.900365,70.4583344 406.204532,70.5750011 C408.508699,70.6916677 410.477449,70.8083344 412.110782,70.9250011 L412.110782,70.9250011 Z M441.261345,70.400001 L441.523845,66.375001 L436.711345,64.887501 C436.536345,64.4208343 436.405095,63.3125009 436.317595,61.5625009 C436.230095,59.8125009 436.186345,57.9750009 436.186345,56.0500008 L436.186345,56.0500008 L436.186345,43.1875006 C437.061345,42.020834 438.140512,41.1020839 439.423845,40.4312506 C440.707179,39.7604173 442.019679,39.4250006 443.361345,39.4250006 C444.644679,39.4250006 445.796762,39.7020839 446.817595,40.2562506 C447.838429,40.8104173 448.655095,41.7000006 449.267596,42.9250006 C449.880096,44.1500007 450.186346,45.8125007 450.186346,47.9125007 L450.186346,47.9125007 L450.273846,56.1375008 C450.273846,57.1875009 450.259262,58.2958342 450.230096,59.4625009 C450.200929,60.6291676 450.157179,61.6791676 450.098845,62.6125009 C450.040512,63.5458343 449.953012,64.3041676 449.836346,64.887501 L449.836346,64.887501 L445.373845,66.375001 L445.636345,70.400001 L466.461346,70.400001 L466.723846,66.375001 L461.911346,64.887501 C461.736346,64.4208343 461.619679,63.3125009 461.561346,61.5625009 C461.503012,59.8125009 461.473846,57.9750009 461.473846,56.0500008 L461.473846,56.0500008 L461.298846,47.0375007 C461.298846,45.455209 461.184401,43.9985277 460.955511,42.6674567 L460.939207,42.5808006 L461.161654,42.3287043 C461.840049,41.6027784 462.602704,41.0129636 463.449617,40.5592599 L463.880096,40.3437506 C465.192596,39.7312506 466.548846,39.4250006 467.948846,39.4250006 C469.290512,39.4250006 470.515512,39.7312506 471.623846,40.3437506 C472.732179,40.9562506 473.607179,41.9479173 474.248846,43.3187506 C474.890513,44.689584 475.211346,46.483334 475.211346,48.7000007 L475.211346,48.7000007 L475.386346,56.1375008 C475.386346,57.1291675 475.371763,58.2083342 475.342596,59.3750009 C475.313429,60.5416676 475.269679,61.6062509 475.211346,62.5687509 C475.153013,63.5312509 475.065513,64.3041676 474.948846,64.887501 L474.948846,64.887501 L470.398846,66.375001 L470.661346,70.400001 L492.186346,70.400001 L492.448846,66.375001 L487.023846,64.887501 C486.848846,64.4208343 486.732179,63.3125009 486.673846,61.5625009 C486.615513,59.8125009 486.586346,57.9750009 486.586346,56.0500008 L486.586346,56.0500008 L486.411346,46.9500007 C486.411346,43.683334 485.828013,40.8687506 484.661346,38.5062506 C483.494679,36.1437505 481.846763,34.3500005 479.717596,33.1250005 C477.588429,31.9000005 475.123846,31.2875005 472.323846,31.2875005 C469.582179,31.2875005 467.030096,32.0020838 464.667596,33.4312505 C462.980096,34.4520838 461.35956,35.8226196 459.805989,37.5428577 L459.412807,37.9888006 L459.242819,37.6714291 C458.169605,35.7678577 456.807105,34.2928577 455.155319,33.2464291 L454.736346,32.9937505 C452.753012,31.8562505 450.623846,31.2875005 448.348845,31.2875005 C446.132179,31.2875005 444.017595,31.8270838 442.005095,32.9062505 C439.992595,33.9854172 438.053012,35.7208339 436.186345,38.1125006 L436.186345,38.1125006 L435.923845,38.0250006 L436.448845,32.9500005 L433.998845,31.4625005 L418.598845,35.4000005 L418.598845,39.3375006 L424.198845,40.5625006 C424.373845,41.5541673 424.519678,42.5312506 424.636345,43.4937506 C424.753012,44.4562507 424.840512,45.4187507 424.898845,46.3812507 C424.957178,47.3437507 424.986345,48.4083341 424.986345,49.5750007 L424.986345,49.5750007 L424.898845,56.1375008 C424.898845,57.5375009 424.869678,58.8645842 424.811345,60.1187509 C424.753012,61.3729176 424.694678,62.4229176 424.636345,63.2687509 C424.578012,64.1145843 424.519678,64.6541676 424.461345,64.887501 L424.461345,64.887501 L419.036345,66.375001 L419.298845,70.400001 L441.261345,70.400001 Z M525.388121,71.1000011 C526.204788,71.1000011 527.065205,70.9833344 527.969371,70.7500011 C528.873538,70.5166677 529.821455,70.1958344 530.813121,69.7875005 L530.813121,69.7875005 L536.500621,67.250001 L536.500621,63.5750009 L530.813121,62.5250009 C530.521455,61.9416676 530.331871,61.1979176 530.244371,60.2937509 C530.156871,59.3895842 530.113121,58.1208342 530.113121,56.4875008 L530.113121,56.4875008 L530.375621,44.3250007 C530.375621,40.3583339 528.844371,37.1937506 525.781871,34.8312505 C522.719371,32.4687505 518.621454,31.2875005 513.488121,31.2875005 C512.088121,31.4041671 510.483954,31.8270838 508.675621,32.5562505 C506.867288,33.2854172 505.102704,34.1604172 503.381871,35.1812505 C501.661038,36.2020839 500.217288,37.2958339 499.050621,38.4625006 C497.883954,39.6291673 497.300621,40.7666673 497.300621,41.8750006 C497.300621,43.683334 498.219371,44.9812507 500.056871,45.7687507 C501.894371,46.5562507 504.271454,46.658334 507.188121,46.0750007 L507.188121,46.0750007 L507.625621,40.7375006 C507.742288,39.4541673 507.990204,38.5937506 508.369371,38.1562506 C508.748538,37.7187506 509.404788,37.5000006 510.338121,37.5000006 C511.796454,37.5000006 513.167288,37.8500006 514.450621,38.5500006 C515.733954,39.2500006 516.769371,40.1395839 517.556871,41.2187506 C518.344371,42.2979173 518.738121,43.4500006 518.738121,44.6750007 L518.738121,44.6750007 L518.738121,47.8250007 L505.000621,51.8500008 C502.258954,52.6666675 500.231871,53.7750008 498.919371,55.1750008 C497.606871,56.5750008 496.950621,58.3541675 496.950621,60.5125009 C496.950621,61.9708343 497.461037,63.5166676 498.481871,65.150001 C499.502704,66.7833343 500.990204,68.1833343 502.944371,69.350001 C504.898538,70.5166677 507.217288,71.1000011 509.900621,71.1000011 C511.650621,71.1000011 513.473538,70.4729177 515.369371,69.218751 C516.748159,68.3066298 518.103806,67.1399631 519.436313,65.718751 L519.752008,65.374401 L520.575621,67.600001 C521.462288,69.8166677 522.954382,70.9804177 525.051902,71.0912511 L525.388121,71.1000011 Z M514.363121,63.2250008 C512.846454,63.2250008 511.548538,62.6854176 510.469371,61.6062509 C509.390204,60.5270842 508.850621,59.2875009 508.850621,57.8875009 C508.850621,56.7791675 509.171454,55.8750008 509.813121,55.1750008 C510.454788,54.4750008 511.475621,54.0083341 512.875621,53.7750008 L512.875621,53.7750008 L518.825621,52.7250008 L518.825621,61.3000009 C518.183954,61.9416676 517.483954,62.4229176 516.725621,62.7437509 C515.967288,63.0645843 515.179788,63.2250008 514.363121,63.2250008 Z M550.378045,24.2875004 C552.769711,24.2875004 554.592628,23.572917 555.846795,22.1437503 C557.100961,20.7145836 557.728045,19.066667 557.728045,17.2000003 C557.728045,15.3333336 557.100961,13.6854169 555.846795,12.2562502 C554.592628,10.8270835 552.769711,10.1125002 550.378045,10.1125002 C547.986378,10.1125002 546.134295,10.8270835 544.821795,12.2562502 C543.509295,13.6854169 542.853045,15.3333336 542.853045,17.2000003 C542.853045,19.066667 543.509295,20.7145836 544.821795,22.1437503 C546.134295,23.572917 547.986378,24.2875004 550.378045,24.2875004 Z M561.928045,70.400001 L562.190545,66.287501 L556.415545,64.887501 C556.240545,64.4208343 556.109295,63.3125009 556.021795,61.5625009 C555.934295,59.8125009 555.890545,57.9750009 555.890545,56.0500008 L555.890545,56.0500008 L555.890545,45.0250007 C555.890545,42.633334 555.934295,40.4895839 556.021795,38.5937506 C556.109295,36.6979172 556.240545,34.8166672 556.415545,32.9500005 L556.415545,32.9500005 L554.053045,31.4625005 L537.953045,35.4000005 L537.953045,39.3375006 L543.815545,40.5625006 C544.107211,42.0791673 544.311378,43.5229173 544.428045,44.8937507 C544.544711,46.264584 544.603045,47.8250007 544.603045,49.5750007 L544.603045,49.5750007 L544.515545,56.1375008 C544.515545,57.5375009 544.486378,58.8645842 544.428045,60.1187509 C544.369711,61.3729176 544.311378,62.4229176 544.253045,63.2687509 C544.194711,64.1145843 544.136378,64.6541676 544.078045,64.887501 L544.078045,64.887501 L538.215545,66.287501 L538.478045,70.400001 L561.928045,70.400001 Z M587.876099,70.400001 L588.0511,66.287501 L582.3636,64.887501 C582.246933,64.3041676 582.159433,62.5979176 582.1011,59.7687509 C582.042766,56.9395842 582.0136,53.4833341 582.0136,49.4000007 L582.0136,49.4000007 L582.1011,36.5375005 C582.1011,32.3375005 582.115683,28.7791671 582.14485,25.8625004 C582.174016,22.9458337 582.217766,20.335417 582.2761,18.0312503 C582.334433,15.7270836 582.421933,13.3500002 582.5386,10.9000002 L582.5386,10.9000002 L580.0886,9.41250014 L563.376099,13.7000002 L563.551099,17.4625003 L570.026099,18.3375003 C570.142766,19.329167 570.230266,20.5687503 570.2886,22.0562503 C570.346933,23.5437504 570.390683,25.2062504 570.41985,27.0437504 C570.449016,28.8812504 570.478183,30.7916671 570.50735,32.7750005 C570.536516,34.7583339 570.5511,36.7708339 570.5511,38.8125006 L570.5511,38.8125006 L570.5511,49.8375007 C570.5511,51.8208341 570.521933,53.8625008 570.4636,55.9625008 C570.405266,58.0625009 570.33235,59.9145842 570.24485,61.5187509 C570.157349,63.1229176 570.084433,64.2458343 570.026099,64.887501 L570.026099,64.887501 L564.338599,66.287501 L564.601099,70.400001 L587.876099,70.400001 Z M635.034146,70.400001 L635.296646,65.850001 L628.209146,64.5375003 C628.150813,64.3041676 628.077896,63.6187509 627.990396,62.4812509 C627.902896,61.3437509 627.815396,59.8270842 627.727896,57.9312509 C627.640396,56.0354175 627.596646,53.9208341 627.596646,51.5875008 L627.596646,51.5875008 L627.588809,50.6688008 L627.727896,50.6906258 C627.96123,50.7270841 628.198209,50.7617195 628.438834,50.794532 L629.171646,50.8875008 C630.163313,51.0041674 631.15498,51.0625008 632.146646,51.0625008 C636.638313,51.0625008 640.47373,50.3187507 643.652897,48.8312507 C646.832063,47.3437507 649.26748,45.3166673 650.959147,42.7500006 C652.650813,40.1833339 653.496647,37.2958339 653.496647,34.0875005 C653.496647,29.2458338 651.732063,25.5270837 648.202897,22.9312503 C644.67373,20.335417 639.321646,19.0375003 632.146646,19.0375003 L632.146646,19.0375003 L609.921646,19.0375003 L609.659146,23.4125003 L615.171646,24.5500004 C615.346646,24.7833337 615.463313,25.5125004 615.521646,26.7375004 C615.579979,27.9625004 615.638313,29.5083338 615.696646,31.3750005 C615.754979,33.2416672 615.784146,35.2833339 615.784146,37.5000006 L615.784146,37.5000006 L615.696646,51.5875008 C615.696646,53.9208341 615.667479,56.0354175 615.609146,57.9312509 C615.550813,59.8270842 615.492479,61.3583342 615.434146,62.5250009 C615.375813,63.6916676 615.259146,64.3916676 615.084146,64.625001 L615.084146,64.625001 L609.921646,66.025001 L610.184146,70.400001 L635.034146,70.400001 Z M632.146646,45.4625007 C630.921646,45.4625007 629.813313,45.3604173 628.821646,45.1562507 C628.491091,45.0881951 628.17998,45.0152784 627.888313,44.9375004 L627.553609,44.8432007 L627.509146,37.5000006 C627.509146,35.0850005 627.520959,33.012563 627.544584,31.282688 L627.552896,30.7187505 C627.582063,28.8812504 627.61123,27.4083337 627.640396,26.3000004 C627.669563,25.191667 627.684146,24.404167 627.684146,23.9375004 L627.684146,23.9375004 L630.134146,23.9375004 C633.459146,23.9375004 636.084146,24.841667 638.009146,26.6500004 C639.934146,28.4583338 640.896647,31.3166671 640.896647,35.2250005 C640.896647,38.5500006 640.138313,41.0875006 638.621646,42.8375006 C637.10498,44.5875007 634.946646,45.4625007 632.146646,45.4625007 Z M678.149633,71.1000011 C681.882967,71.1000011 685.251717,70.1958344 688.255883,68.387501 C691.26005,66.5791677 693.6663,64.143751 695.474633,61.0812509 C697.282967,58.0187509 698.187134,54.5625008 698.187134,50.7125008 C698.187134,46.920834 697.355883,43.552084 695.693383,40.6062506 C694.030883,37.6604172 691.726717,35.3708339 688.780883,33.7375005 C685.83505,32.1041671 682.407967,31.2875005 678.499633,31.2875005 C674.882966,31.2875005 671.470466,32.0750005 668.262133,33.6500005 C665.0538,35.2250005 662.457966,37.5291672 660.474633,40.5625006 C658.4913,43.595834 657.499633,47.270834 657.499633,51.5875008 C657.499633,55.3791675 658.374633,58.7479175 660.124633,61.6937509 C661.874633,64.6395843 664.295466,66.943751 667.387133,68.606251 C670.4788,70.268751 674.0663,71.1000011 678.149633,71.1000011 Z M679.024633,65.500001 C677.274633,65.500001 675.714217,64.7854176 674.343383,63.3562509 C672.97255,61.9270843 671.893383,59.9583342 671.105883,57.4500009 C670.318383,54.9416675 669.924633,52.1416674 669.924633,49.0500007 C669.924633,45.2000007 670.580883,42.152084 671.893383,39.9062506 C673.205883,37.6604172 674.9413,36.5375005 677.099633,36.5375005 C679.782967,36.5375005 681.926717,38.1125006 683.530883,41.2625006 C685.13505,44.4125007 685.937133,48.4958341 685.937133,53.5125008 C685.937133,56.0208342 685.66005,58.1791675 685.105883,59.9875009 C684.551717,61.7958343 683.764217,63.1666676 682.743383,64.100001 C681.72255,65.0333343 680.482967,65.500001 679.024633,65.500001 Z M726.926451,89.6500013 L727.188951,85.5375013 L720.013951,84.1375013 C719.955618,83.6708346 719.882701,82.5916679 719.795201,80.9000012 C719.707701,79.2083345 719.663951,77.4000012 719.663951,75.4750011 L719.663951,75.4750011 L719.663951,69.962501 C720.655618,70.312501 721.691035,70.5750011 722.770201,70.7500011 C723.849368,70.9250011 724.884785,71.0125011 725.876451,71.0125011 C730.251451,71.0125011 734.057701,70.0208344 737.295201,68.037501 C740.532701,66.0541677 743.026452,63.4291676 744.776452,60.1625009 C746.526452,56.8958342 747.401452,53.3666675 747.401452,49.5750007 C747.401452,45.6666673 746.643118,42.3562506 745.126452,39.6437506 C743.609785,36.9312506 741.641035,34.8604172 739.220201,33.4312505 C736.799368,32.0020838 734.188951,31.2875005 731.388951,31.2875005 C729.055618,31.2875005 726.838951,31.9291671 724.738951,33.2125005 C722.638951,34.4958338 720.888951,36.2166672 719.488951,38.3750006 L719.488951,38.3750006 L719.226451,38.2875005 L719.926451,32.9500005 L717.476451,31.4625005 L702.076451,35.4000005 L702.076451,39.3375006 L707.676451,40.5625006 C707.968118,42.0791673 708.172284,43.5229173 708.288951,44.8937507 C708.405618,46.264584 708.463951,47.795834 708.463951,49.4875007 L708.463951,49.4875007 L708.288951,66.900001 C708.288951,68.825001 708.259784,70.7500011 708.201451,72.6750011 C708.143118,74.6000011 708.084784,76.3500011 708.026451,77.9250012 C707.968118,79.5000012 707.909784,80.8416679 707.851451,81.9500012 C707.793118,83.0583346 707.763951,83.7875005 707.763951,84.1375013 L707.763951,84.1375013 L702.338951,85.6250013 L702.601451,89.6500013 L726.926451,89.6500013 Z M725.963951,64.800001 C724.855618,64.800001 723.747285,64.625001 722.638951,64.275001 C721.530618,63.925001 720.538951,63.4875009 719.663951,62.9625009 L719.663951,62.9625009 L719.663951,43.0125006 C720.538951,41.9625006 721.545201,41.1312506 722.682701,40.5187506 C723.820201,39.9062506 725.001451,39.6000006 726.226451,39.6000006 C727.801451,39.6000006 729.259785,40.0375006 730.601451,40.9125006 C731.943118,41.7875006 733.051451,43.1437506 733.926451,44.9812507 C734.801451,46.8187507 735.209785,49.2541674 735.151451,52.2875008 C735.209785,55.2041675 734.830618,57.5958342 734.013951,59.4625009 C733.197285,61.3291676 732.103535,62.6854176 730.732701,63.5312509 C729.361868,64.3770843 727.772285,64.800001 725.963951,64.800001 Z M785.564515,71.5375011 L800.439515,67.512501 L800.439515,63.7500009 L794.664515,62.4375009 C794.489515,60.7458342 794.372849,59.0979175 794.314515,57.4937509 C794.256182,55.8895842 794.227015,54.3875008 794.227015,52.9875008 L794.227015,52.9875008 L794.227015,40.4750006 C794.227015,38.9000006 794.256182,37.5000006 794.314515,36.2750005 C794.372849,35.0500005 794.431182,33.9416672 794.489515,32.9500005 L794.489515,32.9500005 L792.127015,31.4625005 L776.289515,35.4000005 L776.289515,39.3375006 L782.502015,40.5625006 C782.618682,41.5541673 782.720765,42.5312506 782.808265,43.4937506 C782.895765,44.4562507 782.939515,45.477084 782.939515,46.5562507 L782.939515,46.5562507 L782.939515,58.7625009 C782.064515,60.2208342 781.014515,61.2708342 779.789515,61.9125009 C778.564515,62.5541676 777.339515,62.8750009 776.114515,62.8750009 C773.839515,62.8750009 772.031182,62.1750009 770.689515,60.7750009 C769.347848,59.3750009 768.677015,57.1583342 768.677015,54.1250008 L768.677015,54.1250008 L768.764515,46.7750007 C768.764515,44.208334 768.808265,41.7000006 768.895765,39.2500006 C768.983265,36.8000005 769.085348,34.7000005 769.202015,32.9500005 L769.202015,32.9500005 L766.752015,31.4625005 L751.002015,35.4000005 L751.002015,39.3375006 L756.952015,40.5625006 C757.068681,41.7875006 757.156181,43.0125006 757.214515,44.2375007 C757.272848,45.4625005 757.302015,46.7166674 757.302015,48.0000007 L757.302015,48.0000007 L757.302015,55.4375008 C757.302015,60.6875009 758.614515,64.6395843 761.239515,67.293751 C763.864515,69.9479177 767.277015,71.2750011 771.477015,71.2750011 C773.577015,71.2750011 775.604098,70.7354177 777.558265,69.656251 C779.512432,68.5770844 781.335348,66.6958343 783.027015,64.012501 L783.027015,64.012501 L783.289515,64.100001 L783.202015,70.225001 L785.564515,71.5375011 Z M827.188176,89.6500013 L827.450676,85.5375013 L820.275676,84.1375013 C820.217343,83.6708346 820.144426,82.5916679 820.056926,80.9000012 C819.969426,79.2083345 819.925676,77.4000012 819.925676,75.4750011 L819.925676,75.4750011 L819.925676,69.962501 C820.917343,70.312501 821.952759,70.5750011 823.031926,70.7500011 C824.111093,70.9250011 825.146509,71.0125011 826.138176,71.0125011 C830.513176,71.0125011 834.319426,70.0208344 837.556926,68.037501 C840.794426,66.0541677 843.288176,63.4291676 845.038176,60.1625009 C846.788176,56.8958342 847.663176,53.3666675 847.663176,49.5750007 C847.663176,45.6666673 846.904843,42.3562506 845.388176,39.6437506 C843.87151,36.9312506 841.90276,34.8604172 839.481926,33.4312505 C837.061093,32.0020838 834.450676,31.2875005 831.650676,31.2875005 C829.317343,31.2875005 827.100676,31.9291671 825.000676,33.2125005 C822.900676,34.4958338 821.150676,36.2166672 819.750676,38.3750006 L819.750676,38.3750006 L819.488176,38.2875005 L820.188176,32.9500005 L817.738176,31.4625005 L802.338176,35.4000005 L802.338176,39.3375006 L807.938176,40.5625006 C808.229842,42.0791673 808.434009,43.5229173 808.550676,44.8937507 C808.667342,46.264584 808.725676,47.795834 808.725676,49.4875007 L808.725676,49.4875007 L808.550676,66.900001 C808.550676,68.825001 808.521509,70.7500011 808.463176,72.6750011 C808.404842,74.6000011 808.346509,76.3500011 808.288176,77.9250012 C808.229842,79.5000012 808.171509,80.8416679 808.113176,81.9500012 C808.054842,83.0583346 808.025676,83.7875005 808.025676,84.1375013 L808.025676,84.1375013 L802.600676,85.6250013 L802.863176,89.6500013 L827.188176,89.6500013 Z M826.225676,64.800001 C825.117343,64.800001 824.009009,64.625001 822.900676,64.275001 C821.792343,63.925001 820.800676,63.4875009 819.925676,62.9625009 L819.925676,62.9625009 L819.925676,43.0125006 C820.800676,41.9625006 821.806926,41.1312506 822.944426,40.5187506 C824.081926,39.9062506 825.263176,39.6000006 826.488176,39.6000006 C828.063176,39.6000006 829.521509,40.0375006 830.863176,40.9125006 C832.204843,41.7875006 833.313176,43.1437506 834.188176,44.9812507 C835.063176,46.8187507 835.47151,49.2541674 835.413176,52.2875008 C835.47151,55.2041675 835.092343,57.5958342 834.275676,59.4625009 C833.45901,61.3291676 832.365259,62.6854176 830.994426,63.5312509 C829.623593,64.3770843 828.034009,64.800001 826.225676,64.800001 Z" id="PoliteEmailPopup" fill="#4263EB" fill-rule="nonzero"></path>
        </g>
    </g>
</svg>