<?xml version="1.0" encoding="UTF-8"?>
<svg width="217px" height="124px" viewBox="0 0 217 124" version="1.1" xmlns="http://www.w3.org/2000/svg" xmlns:xlink="http://www.w3.org/1999/xlink">
    <title>polite-logo copy 4</title>
    <g id="polite-logo-copy-4" stroke="none" stroke-width="1" fill="none" fill-rule="evenodd">
        <g id="Group" transform="translate(16.000000, 22.000000)">
            <path d="M65.491947,0 L65.491947,33.7797668 L39.0482871,50.9164579 L11.7000006,33.5607727 L11.7000006,0 L65.491947,0 Z M48.4505924,30.0593256 C49.1669168,28.9808913 50.5840441,25.9637874 47.8381637,27.8372305 C45.0922834,29.7106737 41.6543927,30.0593256 38.967907,30.0593256 C36.2814213,30.0593256 32.6763823,29.4317342 30.1660169,27.9627488 C27.6556515,26.4937634 28.7384396,29.0003918 29.8735297,30.337004 C31.0086199,31.6736162 33.6853477,34.6840019 38.967907,34.6840019 C44.2504663,34.6840019 47.734268,31.1377599 48.4505924,30.0593256 Z M30.7911858,10.4000006 C28.863058,10.4000006 27.3000015,12.5389199 27.3000015,15.1774107 C27.3000015,17.8159015 28.863058,19.9548208 30.7911858,19.9548208 C32.7193137,19.9548208 34.2823701,17.8159015 34.2823701,15.1774107 C34.2823701,12.5389199 32.7193137,10.4000006 30.7911858,10.4000006 Z M47.1446282,10.4000006 C45.2165003,10.4000006 43.6534438,12.5389199 43.6534438,15.1774107 C43.6534438,17.8159015 45.2165003,19.9548208 47.1446282,19.9548208 C49.072756,19.9548208 50.6358125,17.8159015 50.6358125,15.1774107 C50.6358125,12.5389199 49.072756,10.4000006 47.1446282,10.4000006 Z" id="Combined-Shape" fill="#FFEC99"></path>
            <polyline id="Path-2" stroke="#FFEC99" stroke-width="3.25000018" stroke-linecap="square" points="11.1665215 26.7742505 0 26.7742505 0 72.800004 79.3000044 72.800004 79.3000044 26.0000014 65.7445837 26.0000014"></polyline>
            <polyline id="Path-3" stroke="#FFEC99" stroke-width="3.25000018" points="0.415349885 27.3404426 39.0482871 50.9164579 78.6500043 26.0000014"></polyline>
            <line x1="1.30000007" y1="71.5000039" x2="25.3500014" y2="44.8500025" id="Path-4" stroke="#FFEC99" stroke-width="3.25000018" stroke-linecap="square"></line>
            <line x1="52.0000029" y1="71.5000039" x2="78.0000043" y2="43.8140649" id="Path-4" stroke="#FFEC99" stroke-width="3.25000018" transform="translate(65.000004, 58.114066) scale(-1, 1) translate(-65.000004, -58.114066) "></line>
            <polyline id="Path-5" stroke="#FFEC99" stroke-width="3.25000018" points="11.7000006 33.7797668 11.7000006 7.15871846e-14 65.491947 7.15871846e-14 65.491947 33.6768573"></polyline>
        </g>
        <path d="M127.824219,37 L127.923828,35.2734375 L125.234375,34.7753906 C125.21224,34.686849 125.18457,34.4267578 125.151367,33.9951172 C125.118164,33.5634766 125.084961,32.9879557 125.051758,32.2685547 C125.018555,31.5491536 125.001953,30.7467448 125.001953,29.8613281 L125.001953,29.8613281 L124.999,29.512 L125.230686,29.5477431 L125.230686,29.5477431 L125.599609,29.5957031 C125.975911,29.639974 126.352214,29.6621094 126.728516,29.6621094 C128.432943,29.6621094 129.888346,29.3798828 131.094727,28.8154297 C132.301107,28.2509766 133.22526,27.4817708 133.867188,26.5078125 C134.509115,25.5338542 134.830078,24.438151 134.830078,23.2207031 C134.830078,21.3834635 134.160482,19.9723307 132.821289,18.9873047 C131.482096,18.0022786 129.451172,17.5097656 126.728516,17.5097656 L126.728516,17.5097656 L118.294922,17.5097656 L118.195312,19.1699219 L120.287109,19.6015625 C120.353516,19.6901042 120.397786,19.9667969 120.419922,20.4316406 C120.442057,20.8964844 120.464193,21.4830729 120.486328,22.1914062 C120.508464,22.8997396 120.519531,23.6744792 120.519531,24.515625 L120.519531,24.515625 L120.486328,29.8613281 C120.486328,30.7467448 120.47526,31.5491536 120.453125,32.2685547 C120.43099,32.9879557 120.408854,33.5690104 120.386719,34.0117188 C120.364583,34.4544271 120.320312,34.7200521 120.253906,34.8085938 L120.253906,34.8085938 L118.294922,35.3398438 L118.394531,37 L127.824219,37 Z M126.728516,27.5371094 C126.263672,27.5371094 125.843099,27.4983724 125.466797,27.4208984 C125.316276,27.3899089 125.17638,27.356263 125.047109,27.3199609 L124.985,27.301 L124.96875,24.515625 C124.96875,23.6246745 124.972987,22.8565928 124.981461,22.21138 L124.985352,21.9423828 C124.996419,21.2451172 125.007487,20.6861979 125.018555,20.265625 C125.029622,19.8450521 125.035156,19.546224 125.035156,19.3691406 L125.035156,19.3691406 L125.964844,19.3691406 C127.226562,19.3691406 128.222656,19.7122396 128.953125,20.3984375 C129.683594,21.0846354 130.048828,22.1692708 130.048828,23.6523438 C130.048828,24.9140625 129.761068,25.8769531 129.185547,26.5410156 C128.610026,27.2050781 127.791016,27.5371094 126.728516,27.5371094 Z M144.185006,37.265625 C145.601673,37.265625 146.879993,36.922526 148.019967,36.2363281 C149.159941,35.5501302 150.073027,34.6259766 150.759225,33.4638672 C151.445423,32.3017578 151.788522,30.9902344 151.788522,29.5292969 C151.788522,28.0904948 151.473092,26.8121745 150.842232,25.6943359 C150.211373,24.5764974 149.337024,23.7076823 148.219186,23.0878906 C147.101347,22.468099 145.800891,22.1582031 144.317818,22.1582031 C142.945423,22.1582031 141.650501,22.4570312 140.433053,23.0546875 C139.215605,23.6523438 138.230579,24.5266927 137.477975,25.6777344 C136.72537,26.828776 136.349068,28.2233073 136.349068,29.8613281 C136.349068,31.3001302 136.6811,32.5784505 137.345162,33.6962891 C138.009225,34.8141276 138.927844,35.6884766 140.101022,36.3193359 C141.274199,36.9501953 142.635527,37.265625 144.185006,37.265625 Z M144.517037,35.140625 C143.852975,35.140625 143.260852,34.8694661 142.74067,34.3271484 C142.220488,33.7848307 141.810982,33.0377604 141.512154,32.0859375 C141.213326,31.1341146 141.063912,30.0716146 141.063912,28.8984375 C141.063912,27.4375 141.312936,26.2809245 141.810982,25.4287109 C142.309029,24.5764974 142.967558,24.1503906 143.786568,24.1503906 C144.804798,24.1503906 145.618274,24.7480469 146.226998,25.9433594 C146.835722,27.1386719 147.140084,28.688151 147.140084,30.5917969 C147.140084,31.5436198 147.034941,32.3626302 146.824654,33.0488281 C146.614368,33.735026 146.31554,34.2552083 145.92817,34.609375 C145.5408,34.9635417 145.070423,35.140625 144.517037,35.140625 Z M162.295629,37 L162.362035,35.4394531 L160.203832,34.9082031 C160.159561,34.686849 160.126358,34.039388 160.104222,32.9658203 C160.082087,31.8922526 160.071019,30.5807292 160.071019,29.03125 L160.071019,29.03125 L160.104222,24.1503906 C160.104222,22.5566406 160.109756,21.2063802 160.120824,20.0996094 C160.131892,18.9928385 160.148493,18.0022786 160.170629,17.1279297 C160.192764,16.2535807 160.225967,15.3515625 160.270238,14.421875 L160.270238,14.421875 L159.34055,13.8574219 L152.998754,15.484375 L153.06516,16.9121094 L155.522191,17.2441406 C155.566462,17.6204427 155.599665,18.0908203 155.6218,18.6552734 C155.643936,19.2197266 155.660537,19.8505859 155.671605,20.5478516 C155.682673,21.2451172 155.693741,21.9700521 155.704808,22.7226562 C155.715876,23.4752604 155.72141,24.2389323 155.72141,25.0136719 L155.72141,25.0136719 L155.72141,29.1972656 C155.72141,29.9498698 155.710342,30.7246094 155.688207,31.5214844 C155.666071,32.3183594 155.638402,33.0211589 155.605199,33.6298828 C155.571996,34.2386068 155.544326,34.6647135 155.522191,34.9082031 L155.522191,34.9082031 L153.363988,35.4394531 L153.463597,37 L162.295629,37 Z M167.847165,19.5019531 C168.754717,19.5019531 169.446449,19.2307943 169.92236,18.6884766 C170.398272,18.1461589 170.636228,17.5208333 170.636228,16.8125 C170.636228,16.1041667 170.398272,15.4788411 169.92236,14.9365234 C169.446449,14.3942057 168.754717,14.1230469 167.847165,14.1230469 C166.939613,14.1230469 166.236814,14.3942057 165.738767,14.9365234 C165.24072,15.4788411 164.991696,16.1041667 164.991696,16.8125 C164.991696,17.5208333 165.24072,18.1461589 165.738767,18.6884766 C166.236814,19.2307943 166.939613,19.5019531 167.847165,19.5019531 Z M172.229978,37 L172.329587,35.4394531 L170.138181,34.9082031 C170.071774,34.7311198 170.02197,34.3105469 169.988767,33.6464844 C169.955564,32.9824219 169.938962,32.2851562 169.938962,31.5546875 L169.938962,31.5546875 L169.938962,27.3710938 C169.938962,26.4635417 169.955564,25.6500651 169.988767,24.9306641 C170.02197,24.211263 170.071774,23.4973958 170.138181,22.7890625 L170.138181,22.7890625 L169.241696,22.2246094 L163.132321,23.71875 L163.132321,25.2128906 L165.356931,25.6777344 C165.467608,26.2532552 165.545082,26.8011068 165.589353,27.3212891 C165.633623,27.8414714 165.655759,28.4335938 165.655759,29.0976562 L165.655759,29.0976562 L165.622556,31.5878906 C165.622556,32.1191406 165.611488,32.6227214 165.589353,33.0986328 C165.567217,33.5745443 165.545082,33.9729818 165.522946,34.2939453 C165.500811,34.6149089 165.478676,34.8196615 165.45654,34.9082031 L165.45654,34.9082031 L163.231931,35.4394531 L163.33154,37 L172.229978,37 Z M180.349775,37.3320312 C181.43441,37.3320312 182.413903,37.0498047 183.288252,36.4853516 C184.162601,35.9208984 184.765791,35.1627604 185.097822,34.2109375 L185.097822,34.2109375 L184.267744,33.2480469 C183.957848,33.5358073 183.603681,33.7571615 183.205244,33.9121094 C182.806806,34.0670573 182.408369,34.1445312 182.009931,34.1445312 C181.213056,34.1445312 180.587731,33.9453125 180.133955,33.546875 C179.680179,33.1484375 179.453291,32.484375 179.453291,31.5546875 L179.453291,31.5546875 L179.512,24.549 L184.201338,24.5488281 L184.201338,22.4570312 L179.537,22.458 L179.586103,19.0039062 L178.556806,19.0039062 L172.879072,23.5195312 L172.879072,24.5488281 L175.203291,24.5488281 L175.103681,31.953125 C175.103681,33.7460938 175.596194,35.0908203 176.58122,35.9873047 C177.566246,36.8837891 178.822431,37.3320312 180.349775,37.3320312 Z M193.137935,37.265625 C194.532466,37.265625 195.794185,36.922526 196.923091,36.2363281 C198.051998,35.5501302 198.926347,34.5429688 199.546138,33.2148438 L199.546138,33.2148438 L198.516841,32.2519531 C197.941321,32.9160156 197.343664,33.3863932 196.723873,33.6630859 C196.104081,33.9397786 195.417883,34.078125 194.665279,34.078125 C193.270748,34.078125 192.152909,33.6022135 191.311763,32.6503906 C190.58277,31.8254774 190.169674,30.7844242 190.072475,29.5272309 L190.068,29.463 L199.380123,29.4628906 L199.380123,28.6660156 C199.380123,26.7402344 198.848873,25.1741536 197.786373,23.9677734 C196.723873,22.7613932 195.207597,22.1582031 193.237545,22.1582031 C191.931555,22.1360677 190.708573,22.4570312 189.568599,23.1210938 C188.428625,23.7851562 187.504472,24.6982422 186.796138,25.8603516 C186.087805,27.0224609 185.733638,28.3782552 185.733638,29.9277344 C185.733638,31.3222656 186.049068,32.5729167 186.679927,33.6796875 C187.310787,34.7864583 188.185136,35.6608073 189.302974,36.3027344 C190.420813,36.9446615 191.699133,37.265625 193.137935,37.265625 Z M195.594,27.737 L190.063,27.737 L190.068901,27.6236015 C190.106613,27.036603 190.200893,26.5209298 190.351742,26.0765818 L190.43188,25.8603516 C190.686438,25.2294922 191.040604,24.7591146 191.49438,24.4492188 C191.948157,24.1393229 192.44067,23.984375 192.97192,23.984375 C193.79093,23.984375 194.432857,24.2942708 194.897701,24.9140625 C195.362545,25.5338542 195.594966,26.3528646 195.594966,27.3710938 L195.594966,27.3710938 L195.594,27.737 Z M134.265625,67.1992188 L135.759766,61.8203125 L133.867188,61.4550781 L132.041016,64.7753906 C131.886068,64.797526 131.736654,64.8196615 131.592773,64.8417969 C131.448893,64.8639323 131.238607,64.8805339 130.961914,64.8916016 C130.685221,64.9026693 130.259115,64.9082031 129.683594,64.9082031 L129.683594,64.9082031 L127.923828,64.9082031 C127.259766,64.9082031 126.70638,64.8971354 126.263672,64.875 C125.820964,64.8528646 125.400391,64.8085938 125.001953,64.7421875 C125.001953,64.5429688 124.996419,64.2607422 124.985352,63.8955078 C124.974284,63.5302734 124.963216,63.0709635 124.952148,62.5175781 C124.941081,61.9641927 124.935547,61.3333333 124.935547,60.625 L124.935547,60.625 L124.935,58.105 L124.985352,58.1015625 C125.214084,58.0868056 125.450195,58.0769676 125.693685,58.0720486 L126.064453,58.0683594 L127.824219,58.0683594 C128.266927,58.0683594 128.654297,58.0738932 128.986328,58.0849609 C129.318359,58.0960286 129.561849,58.1126302 129.716797,58.1347656 L129.716797,58.1347656 L130.048828,60.359375 L131.875,60.359375 L131.875,53.6523438 L130.048828,53.6523438 L129.716797,55.8769531 C129.561849,55.8769531 129.318359,55.882487 128.986328,55.8935547 C128.654297,55.9046224 128.266927,55.9101562 127.824219,55.9101562 L127.824219,55.9101562 L126.064453,55.9101562 C125.688151,55.9101562 125.328451,55.8990885 124.985352,55.8769531 L124.985352,55.8769531 L124.935,55.874 L124.935547,53.6523438 C124.935547,53.0251736 124.93939,52.4671766 124.947076,51.9783529 L124.952148,51.6933594 C124.963216,51.139974 124.974284,50.6861979 124.985352,50.3320312 C124.996419,49.9778646 125.001953,49.7122396 125.001953,49.5351562 C125.245443,49.4908854 125.560872,49.4632161 125.948242,49.4521484 C126.335612,49.4410807 126.739583,49.4355469 127.160156,49.4355469 L127.160156,49.4355469 L129.683594,49.4355469 C129.949219,49.4355469 130.198242,49.4466146 130.430664,49.46875 C130.663086,49.4908854 130.923177,49.5351562 131.210938,49.6015625 L131.210938,49.6015625 L132.439453,52.5234375 L134.365234,52.2578125 L133.46875,47.34375 C133.048177,47.3658854 132.533529,47.3935547 131.924805,47.4267578 C131.316081,47.4599609 130.696289,47.4820964 130.06543,47.4931641 C129.43457,47.5042318 128.897786,47.5097656 128.455078,47.5097656 L118.228516,47.5097656 L118.128906,49.1699219 L120.253906,49.7011719 C120.298177,49.7897135 120.336914,50.0664062 120.370117,50.53125 C120.40332,50.9960938 120.43099,51.5992839 120.453125,52.3408203 C120.47526,53.0823568 120.486328,53.9179688 120.486328,54.8476562 L120.486328,54.8476562 L120.486328,59.6953125 C120.486328,60.5807292 120.47526,61.3942057 120.453125,62.1357422 C120.43099,62.8772786 120.40332,63.4804688 120.370117,63.9453125 C120.336914,64.4101562 120.298177,64.6979167 120.253906,64.8085938 L120.253906,64.8085938 L118.128906,65.3398438 L118.228516,67 L129.650391,67 C130.358724,67 131.150065,67.0221354 132.024414,67.0664062 C132.898763,67.1106771 133.645833,67.1549479 134.265625,67.1992188 L134.265625,67.1992188 Z M145.327223,67 L145.426832,65.4726562 L143.60066,64.9082031 C143.534254,64.7311198 143.484449,64.3105469 143.451246,63.6464844 C143.418043,62.9824219 143.401441,62.2851562 143.401441,61.5546875 L143.401441,61.5546875 L143.401441,56.6738281 C143.733473,56.2311198 144.142978,55.882487 144.629957,55.6279297 C145.116936,55.3733724 145.614983,55.2460938 146.124098,55.2460938 C146.611077,55.2460938 147.048251,55.351237 147.435621,55.5615234 C147.822991,55.7718099 148.132887,56.109375 148.365309,56.5742188 C148.59773,57.0390625 148.713941,57.6699219 148.713941,58.4667969 L148.713941,58.4667969 L148.747144,61.5878906 C148.747144,61.9863281 148.741611,62.406901 148.730543,62.8496094 C148.719475,63.2923177 148.702874,63.6907552 148.680738,64.0449219 C148.658603,64.3990885 148.6254,64.686849 148.581129,64.9082031 L148.581129,64.9082031 L146.887769,65.4726562 L146.987379,67 L154.889723,67 L154.989332,65.4726562 L153.16316,64.9082031 C153.096754,64.7311198 153.052483,64.3105469 153.030348,63.6464844 C153.008212,62.9824219 152.997144,62.2851562 152.997144,61.5546875 L152.997144,61.5546875 L152.930738,58.1347656 C152.930738,57.562934 152.891348,57.0343357 152.812567,56.5489705 L152.793,56.444 L152.953099,56.2706473 C153.178971,56.0429687 153.428333,55.8532366 153.701186,55.7014509 L153.91023,55.5947266 C154.408277,55.3623047 154.922926,55.2460938 155.454176,55.2460938 C155.96329,55.2460938 156.428134,55.3623047 156.848707,55.5947266 C157.26928,55.8271484 157.601311,56.2034505 157.844801,56.7236328 C158.08829,57.2438151 158.210035,57.9244792 158.210035,58.765625 L158.210035,58.765625 L158.276441,61.5878906 C158.276441,61.9641927 158.270907,62.3736979 158.25984,62.8164062 C158.248772,63.2591146 158.232171,63.6630859 158.210035,64.0283203 C158.1879,64.3935547 158.154697,64.686849 158.110426,64.9082031 L158.110426,64.9082031 L156.383863,65.4726562 L156.483473,67 L164.651441,67 L164.751051,65.4726562 L162.692457,64.9082031 C162.626051,64.7311198 162.58178,64.3105469 162.559644,63.6464844 C162.537509,62.9824219 162.526441,62.2851562 162.526441,61.5546875 L162.526441,61.5546875 L162.460035,58.1015625 C162.460035,56.8619792 162.238681,55.7939453 161.795973,54.8974609 C161.353264,54.0009766 160.727939,53.3203125 159.919996,52.8554688 C159.112053,52.390625 158.176832,52.1582031 157.114332,52.1582031 C156.073967,52.1582031 155.105543,52.429362 154.209059,52.9716797 C153.581519,53.3513021 152.978385,53.8583691 152.399654,54.4928809 L152.215,54.702 L152.109459,54.5089844 C151.722532,53.8449219 151.23998,53.322526 150.661803,52.9417969 L150.440504,52.8056641 C149.6879,52.3740234 148.879957,52.1582031 148.016676,52.1582031 C147.17553,52.1582031 146.373121,52.3629557 145.609449,52.7724609 C144.845777,53.1819661 144.109775,53.8404948 143.401441,54.7480469 L143.401441,54.7480469 L143.301832,54.7148438 L143.501051,52.7890625 L142.571363,52.2246094 L136.727613,53.71875 L136.727613,55.2128906 L138.852613,55.6777344 C138.919019,56.0540365 138.974358,56.4248047 139.018629,56.7900391 C139.0629,57.1552734 139.096103,57.5205078 139.118238,57.8857422 C139.140374,58.2509766 139.151441,58.6549479 139.151441,59.0976562 L139.151441,59.0976562 L139.118238,61.5878906 C139.118238,62.1191406 139.107171,62.6227214 139.085035,63.0986328 C139.0629,63.5745443 139.040764,63.9729818 139.018629,64.2939453 C138.996493,64.6149089 138.974358,64.8196615 138.952223,64.9082031 L138.952223,64.9082031 L136.893629,65.4726562 L136.993238,67 L145.327223,67 Z M177.250329,67.265625 C177.560225,67.265625 177.886722,67.2213542 178.229821,67.1328125 C178.57292,67.0442708 178.932621,66.922526 179.308923,66.7675781 L179.308923,66.7675781 L181.467126,65.8046875 L181.467126,64.4101562 L179.308923,64.0117188 C179.198246,63.7903646 179.126306,63.508138 179.093102,63.1650391 C179.059899,62.8219401 179.043298,62.3404948 179.043298,61.7207031 L179.043298,61.7207031 L179.142907,57.1054688 C179.142907,55.6002604 178.561852,54.3994141 177.399743,53.5029297 C176.237634,52.6064453 174.682621,52.1582031 172.734704,52.1582031 C172.203454,52.202474 171.59473,52.3629557 170.908532,52.6396484 C170.222334,52.9163411 169.552738,53.2483724 168.899743,53.6357422 C168.246748,54.023112 167.698897,54.438151 167.256188,54.8808594 C166.81348,55.3235677 166.592126,55.7552083 166.592126,56.1757812 C166.592126,56.8619792 166.940759,57.3544922 167.638024,57.6533203 C168.33529,57.9521484 169.237308,57.9908854 170.344079,57.7695312 L170.344079,57.7695312 L170.510095,55.7441406 C170.554365,55.2571615 170.648441,54.9306641 170.792321,54.7646484 C170.936201,54.5986328 171.185225,54.515625 171.539392,54.515625 C172.092777,54.515625 172.612959,54.6484375 173.099938,54.9140625 C173.586918,55.1796875 173.979821,55.5172526 174.278649,55.9267578 C174.577477,56.336263 174.726892,56.7734375 174.726892,57.2382812 L174.726892,57.2382812 L174.726892,58.4335938 L169.514001,59.9609375 C168.473636,60.2708333 167.704431,60.6914062 167.206384,61.2226562 C166.708337,61.7539062 166.459313,62.4290365 166.459313,63.2480469 C166.459313,63.8014323 166.652998,64.3880208 167.040368,65.0078125 C167.427738,65.6276042 167.992191,66.1588542 168.733727,66.6015625 C169.475264,67.0442708 170.355147,67.265625 171.373376,67.265625 C172.037438,67.265625 172.72917,67.0276693 173.448571,66.5517578 C173.988122,66.1948242 174.518334,65.7351685 175.039208,65.1727905 L175.111,65.092 L175.424157,65.9375 C175.754713,66.7638889 176.307016,67.2046296 177.081067,67.2597222 L177.250329,67.265625 Z M173.066735,64.2773438 C172.491214,64.2773438 171.998701,64.0725911 171.589196,63.6630859 C171.179691,63.2535807 170.974938,62.7832031 170.974938,62.2519531 C170.974938,61.8313802 171.096683,61.4882812 171.340173,61.2226562 C171.583662,60.9570312 171.971032,60.7799479 172.502282,60.6914062 L172.502282,60.6914062 L174.760095,60.2929688 L174.760095,63.546875 C174.516605,63.7903646 174.25098,63.9729818 173.96322,64.0947266 C173.675459,64.2164714 173.376631,64.2773438 173.066735,64.2773438 Z M186.733112,49.5019531 C187.640664,49.5019531 188.332396,49.2307943 188.808308,48.6884766 C189.284219,48.1461589 189.522175,47.5208333 189.522175,46.8125 C189.522175,46.1041667 189.284219,45.4788411 188.808308,44.9365234 C188.332396,44.3942057 187.640664,44.1230469 186.733112,44.1230469 C185.82556,44.1230469 185.122761,44.3942057 184.624714,44.9365234 C184.126667,45.4788411 183.877644,46.1041667 183.877644,46.8125 C183.877644,47.5208333 184.126667,48.1461589 184.624714,48.6884766 C185.122761,49.2307943 185.82556,49.5019531 186.733112,49.5019531 Z M191.115925,67 L191.215534,65.4394531 L189.024128,64.9082031 C188.957722,64.7311198 188.907917,64.3105469 188.874714,63.6464844 C188.841511,62.9824219 188.824909,62.2851562 188.824909,61.5546875 L188.824909,61.5546875 L188.824909,57.3710938 C188.824909,56.4635417 188.841511,55.6500651 188.874714,54.9306641 C188.907917,54.211263 188.957722,53.4973958 189.024128,52.7890625 L189.024128,52.7890625 L188.127644,52.2246094 L182.018269,53.71875 L182.018269,55.2128906 L184.242878,55.6777344 C184.353555,56.2532552 184.431029,56.8011068 184.4753,57.3212891 C184.519571,57.8414714 184.541706,58.4335938 184.541706,59.0976562 L184.541706,59.0976562 L184.508503,61.5878906 C184.508503,62.1191406 184.497435,62.6227214 184.4753,63.0986328 C184.453164,63.5745443 184.431029,63.9729818 184.408894,64.2939453 C184.386758,64.6149089 184.364623,64.8196615 184.342487,64.9082031 L184.342487,64.9082031 L182.117878,65.4394531 L182.217487,67 L191.115925,67 Z M200.962285,67 L201.028691,65.4394531 L198.870488,64.9082031 C198.826217,64.686849 198.793014,64.039388 198.770879,62.9658203 C198.748743,61.8922526 198.737675,60.5807292 198.737675,59.03125 L198.737675,59.03125 L198.770879,54.1503906 C198.770879,52.5566406 198.776412,51.2063802 198.78748,50.0996094 C198.798548,48.9928385 198.815149,48.0022786 198.837285,47.1279297 C198.85942,46.2535807 198.892623,45.3515625 198.936894,44.421875 L198.936894,44.421875 L198.007207,43.8574219 L191.66541,45.484375 L191.731816,46.9121094 L194.188847,47.2441406 C194.233118,47.6204427 194.266321,48.0908203 194.288457,48.6552734 C194.310592,49.2197266 194.327194,49.8505859 194.338261,50.5478516 C194.349329,51.2451172 194.360397,51.9700521 194.371464,52.7226562 C194.382532,53.4752604 194.388066,54.2389323 194.388066,55.0136719 L194.388066,55.0136719 L194.388066,59.1972656 C194.388066,59.9498698 194.376998,60.7246094 194.354863,61.5214844 C194.332728,62.3183594 194.305058,63.0211589 194.271855,63.6298828 C194.238652,64.2386068 194.210983,64.6647135 194.188847,64.9082031 L194.188847,64.9082031 L192.030644,65.4394531 L192.130254,67 L200.962285,67 Z M127.824219,97 L127.923828,95.2734375 L125.234375,94.7753906 C125.21224,94.686849 125.18457,94.4267578 125.151367,93.9951172 C125.118164,93.5634766 125.084961,92.9879557 125.051758,92.2685547 C125.018555,91.5491536 125.001953,90.7467448 125.001953,89.8613281 L125.001953,89.8613281 L124.999,89.512 L125.230686,89.5477431 L125.230686,89.5477431 L125.599609,89.5957031 C125.975911,89.639974 126.352214,89.6621094 126.728516,89.6621094 C128.432943,89.6621094 129.888346,89.3798828 131.094727,88.8154297 C132.301107,88.2509766 133.22526,87.4817708 133.867188,86.5078125 C134.509115,85.5338542 134.830078,84.438151 134.830078,83.2207031 C134.830078,81.3834635 134.160482,79.9723307 132.821289,78.9873047 C131.482096,78.0022786 129.451172,77.5097656 126.728516,77.5097656 L126.728516,77.5097656 L118.294922,77.5097656 L118.195312,79.1699219 L120.287109,79.6015625 C120.353516,79.6901042 120.397786,79.9667969 120.419922,80.4316406 C120.442057,80.8964844 120.464193,81.4830729 120.486328,82.1914062 C120.508464,82.8997396 120.519531,83.6744792 120.519531,84.515625 L120.519531,84.515625 L120.486328,89.8613281 C120.486328,90.7467448 120.47526,91.5491536 120.453125,92.2685547 C120.43099,92.9879557 120.408854,93.5690104 120.386719,94.0117188 C120.364583,94.4544271 120.320312,94.7200521 120.253906,94.8085938 L120.253906,94.8085938 L118.294922,95.3398438 L118.394531,97 L127.824219,97 Z M126.728516,87.5371094 C126.263672,87.5371094 125.843099,87.4983724 125.466797,87.4208984 C125.316276,87.3899089 125.17638,87.356263 125.047109,87.3199609 L124.985,87.301 L124.96875,84.515625 C124.96875,83.6246745 124.972987,82.8565928 124.981461,82.21138 L124.985352,81.9423828 C124.996419,81.2451172 125.007487,80.6861979 125.018555,80.265625 C125.029622,79.8450521 125.035156,79.546224 125.035156,79.3691406 L125.035156,79.3691406 L125.964844,79.3691406 C127.226562,79.3691406 128.222656,79.7122396 128.953125,80.3984375 C129.683594,81.0846354 130.048828,82.1692708 130.048828,83.6523438 C130.048828,84.9140625 129.761068,85.8769531 129.185547,86.5410156 C128.610026,87.2050781 127.791016,87.5371094 126.728516,87.5371094 Z M144.185006,97.265625 C145.601673,97.265625 146.879993,96.922526 148.019967,96.2363281 C149.159941,95.5501302 150.073027,94.6259766 150.759225,93.4638672 C151.445423,92.3017578 151.788522,90.9902344 151.788522,89.5292969 C151.788522,88.0904948 151.473092,86.8121745 150.842232,85.6943359 C150.211373,84.5764974 149.337024,83.7076823 148.219186,83.0878906 C147.101347,82.468099 145.800891,82.1582031 144.317818,82.1582031 C142.945423,82.1582031 141.650501,82.4570312 140.433053,83.0546875 C139.215605,83.6523438 138.230579,84.5266927 137.477975,85.6777344 C136.72537,86.828776 136.349068,88.2233073 136.349068,89.8613281 C136.349068,91.3001302 136.6811,92.5784505 137.345162,93.6962891 C138.009225,94.8141276 138.927844,95.6884766 140.101022,96.3193359 C141.274199,96.9501953 142.635527,97.265625 144.185006,97.265625 Z M144.517037,95.140625 C143.852975,95.140625 143.260852,94.8694661 142.74067,94.3271484 C142.220488,93.7848307 141.810982,93.0377604 141.512154,92.0859375 C141.213326,91.1341146 141.063912,90.0716146 141.063912,88.8984375 C141.063912,87.4375 141.312936,86.2809245 141.810982,85.4287109 C142.309029,84.5764974 142.967558,84.1503906 143.786568,84.1503906 C144.804798,84.1503906 145.618274,84.7480469 146.226998,85.9433594 C146.835722,87.1386719 147.140084,88.688151 147.140084,90.5917969 C147.140084,91.5436198 147.034941,92.3626302 146.824654,93.0488281 C146.614368,93.735026 146.31554,94.2552083 145.92817,94.609375 C145.5408,94.9635417 145.070423,95.140625 144.517037,95.140625 Z M162.694066,104.304688 L162.793675,102.744141 L160.071019,102.212891 C160.048884,102.035807 160.021214,101.626302 159.988011,100.984375 C159.954808,100.342448 159.938207,99.65625 159.938207,98.9257812 L159.938207,98.9257812 L159.938207,96.8339844 C160.314509,96.9667969 160.707412,97.0664062 161.116918,97.1328125 C161.526423,97.1992188 161.919326,97.2324219 162.295629,97.2324219 C163.955785,97.2324219 165.400121,96.8561198 166.628636,96.1035156 C167.857152,95.3509115 168.803441,94.3548177 169.467504,93.1152344 C170.131566,91.875651 170.463597,90.5364583 170.463597,89.0976562 C170.463597,87.6145833 170.175837,86.3583984 169.600316,85.3291016 C169.024795,84.2998047 168.277725,83.5139974 167.359105,82.9716797 C166.440485,82.429362 165.449925,82.1582031 164.387425,82.1582031 C163.502009,82.1582031 162.660863,82.4016927 161.863988,82.8886719 C161.067113,83.375651 160.40305,84.0286458 159.8718,84.8476562 L159.8718,84.8476562 L159.772191,84.8144531 L160.037816,82.7890625 L159.108129,82.2246094 L153.264379,83.71875 L153.264379,85.2128906 L155.389379,85.6777344 C155.500056,86.2532552 155.57753,86.8011068 155.6218,87.3212891 C155.666071,87.8414714 155.688207,88.422526 155.688207,89.0644531 L155.688207,89.0644531 L155.6218,95.671875 C155.6218,96.4023438 155.610733,97.1328125 155.588597,97.8632812 C155.566462,98.59375 155.544326,99.2578125 155.522191,99.8554688 C155.500056,100.453125 155.47792,100.96224 155.455785,101.382812 C155.433649,101.803385 155.422582,102.080078 155.422582,102.212891 L155.422582,102.212891 L153.363988,102.777344 L153.463597,104.304688 L162.694066,104.304688 Z M162.328832,94.875 C161.908259,94.875 161.487686,94.8085938 161.067113,94.6757812 C160.64654,94.5429688 160.270238,94.3769531 159.938207,94.1777344 L159.938207,94.1777344 L159.938207,86.6074219 C160.270238,86.2089844 160.652074,85.8935547 161.083714,85.6611328 C161.515355,85.4287109 161.963597,85.3125 162.428441,85.3125 C163.026097,85.3125 163.579483,85.4785156 164.088597,85.8105469 C164.597712,86.1425781 165.018285,86.6572266 165.350316,87.3544922 C165.682347,88.0517578 165.837295,88.9759115 165.81516,90.1269531 C165.837295,91.233724 165.693415,92.141276 165.383519,92.8496094 C165.073623,93.5579427 164.658584,94.0725911 164.138402,94.3935547 C163.61822,94.7145182 163.01503,94.875 162.328832,94.875 Z M184.945117,97.4316406 L190.589648,95.9042969 L190.589648,94.4765625 L188.398242,93.9785156 C188.331836,93.3365885 188.287565,92.711263 188.265429,92.1025391 C188.243294,91.4938151 188.232226,90.9238281 188.232226,90.3925781 L188.232226,90.3925781 L188.232226,85.6445312 C188.232226,85.046875 188.243294,84.515625 188.265429,84.0507812 C188.287565,83.5859375 188.3097,83.1653646 188.331836,82.7890625 L188.331836,82.7890625 L187.435351,82.2246094 L181.425586,83.71875 L181.425586,85.2128906 L183.783007,85.6777344 C183.827278,86.0540365 183.866015,86.4248047 183.899218,86.7900391 C183.932421,87.1552734 183.949023,87.5426432 183.949023,87.9521484 L183.949023,87.9521484 L183.949023,92.5839844 C183.616992,93.1373698 183.218554,93.5358073 182.753711,93.7792969 C182.288867,94.0227865 181.824023,94.1445312 181.359179,94.1445312 C180.495898,94.1445312 179.8097,93.8789062 179.300586,93.3476562 C178.791471,92.8164062 178.536914,91.9752604 178.536914,90.8242188 L178.536914,90.8242188 L178.570117,88.0351562 C178.570117,87.0611979 178.586718,86.109375 178.619921,85.1796875 C178.653125,84.25 178.691862,83.453125 178.736132,82.7890625 L178.736132,82.7890625 L177.806445,82.2246094 L171.829882,83.71875 L171.829882,85.2128906 L174.087695,85.6777344 C174.131966,86.1425781 174.165169,86.6074219 174.187304,87.0722656 C174.20944,87.5371094 174.220507,88.0130208 174.220507,88.5 L174.220507,88.5 L174.220507,91.3222656 C174.220507,93.3144531 174.718554,94.8141276 175.714648,95.8212891 C176.710742,96.8284505 178.005664,97.3320312 179.599414,97.3320312 C180.396289,97.3320312 181.165494,97.1272786 181.907031,96.7177734 C182.648567,96.3082682 183.340299,95.594401 183.982226,94.5761719 L183.982226,94.5761719 L184.081836,94.609375 L184.048632,96.9335938 L184.945117,97.4316406 Z M200.739809,104.304688 L200.839419,102.744141 L198.116762,102.212891 C198.094627,102.035807 198.066958,101.626302 198.033755,100.984375 C198.000551,100.342448 197.98395,99.65625 197.98395,98.9257812 L197.98395,98.9257812 L197.98395,96.8339844 C198.360252,96.9667969 198.753156,97.0664062 199.162661,97.1328125 C199.572166,97.1992188 199.96507,97.2324219 200.341372,97.2324219 C202.001528,97.2324219 203.445864,96.8561198 204.67438,96.1035156 C205.902895,95.3509115 206.849184,94.3548177 207.513247,93.1152344 C208.177309,91.875651 208.509341,90.5364583 208.509341,89.0976562 C208.509341,87.6145833 208.22158,86.3583984 207.646059,85.3291016 C207.070538,84.2998047 206.323468,83.5139974 205.404848,82.9716797 C204.486229,82.429362 203.495669,82.1582031 202.433169,82.1582031 C201.547752,82.1582031 200.706606,82.4016927 199.909731,82.8886719 C199.112856,83.375651 198.448794,84.0286458 197.917544,84.8476562 L197.917544,84.8476562 L197.817934,84.8144531 L198.083559,82.7890625 L197.153872,82.2246094 L191.310122,83.71875 L191.310122,85.2128906 L193.435122,85.6777344 C193.545799,86.2532552 193.623273,86.8011068 193.667544,87.3212891 C193.711814,87.8414714 193.73395,88.422526 193.73395,89.0644531 L193.73395,89.0644531 L193.667544,95.671875 C193.667544,96.4023438 193.656476,97.1328125 193.634341,97.8632812 C193.612205,98.59375 193.59007,99.2578125 193.567934,99.8554688 C193.545799,100.453125 193.523663,100.96224 193.501528,101.382812 C193.479393,101.803385 193.468325,102.080078 193.468325,102.212891 L193.468325,102.212891 L191.409731,102.777344 L191.509341,104.304688 L200.739809,104.304688 Z M200.374575,94.875 C199.954002,94.875 199.533429,94.8085938 199.112856,94.6757812 C198.692283,94.5429688 198.315981,94.3769531 197.98395,94.1777344 L197.98395,94.1777344 L197.98395,86.6074219 C198.315981,86.2089844 198.697817,85.8935547 199.129458,85.6611328 C199.561098,85.4287109 200.009341,85.3125 200.474184,85.3125 C201.071841,85.3125 201.625226,85.4785156 202.134341,85.8105469 C202.643455,86.1425781 203.064028,86.6572266 203.396059,87.3544922 C203.728091,88.0517578 203.883038,88.9759115 203.860903,90.1269531 C203.883038,91.233724 203.739158,92.141276 203.429262,92.8496094 C203.119367,93.5579427 202.704328,94.0725911 202.184145,94.3935547 C201.663963,94.7145182 201.060773,94.875 200.374575,94.875 Z" id="PoliteEmailPopup" fill="#FFEC99" fill-rule="nonzero"></path>
    </g>
</svg>