<?xml version="1.0" encoding="UTF-8"?>
<svg width="378px" height="378px" viewBox="0 0 378 378" version="1.1" xmlns="http://www.w3.org/2000/svg" xmlns:xlink="http://www.w3.org/1999/xlink">
    <title>remake-logo-icon-padding</title>
    <g id="remake-logo-icon-padding" stroke="none" stroke-width="1" fill="none" fill-rule="evenodd">
        <g id="logo" transform="translate(70.000000, 82.000000)" fill-rule="nonzero">
            <g id="Group-Copy">
                <path d="M197.168966,50.0399956 L189.820574,29.8999566 L47.1732453,29.8999566 L39.6324252,50.0399956 L20.6769238,50.0399956 L33.631271,15.4414966 C34.372951,13.4606161 36.2660544,12.1479809 38.3812322,12.1479809 L198.691733,12.1479809 C200.822523,12.1479809 202.726122,13.4797754 203.456477,15.4814867 L216.065662,50.0399956 L197.168966,50.0399956 Z" id="Combined-Shape" fill="#E8590C"></path>
                <path d="M147.942005,153.719987 L145.505826,144.0198 L89.2921401,144.0198 L86.228459,153.719987 L67.6121183,153.719987 L75.1630681,129.812271 C75.8294812,127.702282 77.7868393,126.267824 79.999566,126.267824 L155.395044,126.267824 C157.720376,126.267824 159.747857,127.849073 160.314268,130.104366 L166.245274,153.719987 L147.942005,153.719987 Z" id="Combined-Shape" fill="#9FB9F0"></path>
                <path d="M84.8640416,158.039986 L76.0762603,185.863743 L156.01483,185.863743 L149.026962,158.039986 L167.330231,158.039986 L177.58839,198.885135 C178.10013,200.922745 176.863169,202.989401 174.825559,203.501142 C174.522573,203.577236 174.211366,203.615718 173.898971,203.615718 L57.0438418,203.615718 C54.9429534,203.615718 53.2398472,201.912612 53.2398472,199.811723 C53.2398472,199.423056 53.2994122,199.036685 53.4164682,198.666063 L66.2477008,158.039986 L84.8640416,158.039986 Z" id="Combined-Shape" fill="#1656DB"></path>
                <path d="M162.129819,93.2399919 L159.595773,85.6918799 L73.4249391,85.6918799 L70.8162421,93.2399919 L52.0339659,93.2399919 L59.5975781,71.3551265 C60.3039961,69.3111472 62.2287382,67.9399045 64.3913473,67.9399045 L168.714333,67.9399045 C170.893468,67.9399045 172.829059,69.331846 173.522596,71.397672 L180.85548,93.2399919 L162.129819,93.2399919 Z" id="Combined-Shape" fill="#F79DBD"></path>
                <path d="M107.048918,32.9244611 L93.4855227,46.4878569 C89.7716419,50.2017381 83.750251,50.2017381 80.0363703,46.4878569 C76.322489,42.7739761 76.322489,36.7525854 80.0363703,33.0387045 L109.816279,3.25879621 C114.025344,-0.950268821 120.849586,-0.950268821 125.058651,3.25879621 L154.83856,33.0387045 C158.55244,36.7525854 158.55244,42.7739761 154.83856,46.4878569 C151.124679,50.2017381 145.103288,50.2017381 141.389407,46.4878569 L127.336891,32.4353407 L127.336891,161.771776 C127.336891,167.374144 122.795273,171.915762 117.192905,171.915762 C111.590536,171.915762 107.048918,167.374144 107.048918,161.771776 L107.048918,32.9244611 Z" id="Combined-Shape" fill="#192E5B"></path>
                <path d="M69.3232101,97.5599915 L54.3669614,140.835014 L178.108377,140.835014 L163.580125,97.5599915 L182.305786,97.5599915 L201.67137,155.24388 C202.117126,156.571645 201.402117,158.009368 200.074351,158.455124 C199.81422,158.542455 199.541638,158.586989 199.267239,158.586989 L33.009084,158.586989 C31.6084918,158.586989 30.4730875,157.451585 30.4730875,156.050993 C30.4730875,155.769051 30.520103,155.489083 30.6121994,155.222607 L50.5409339,97.5599915 L69.3232101,97.5599915 Z" id="Combined-Shape" fill="#EC135F"></path>
                <path d="M39.6324252,50.0399956 L25.334144,88.2278765 L211.102383,88.2278765 L197.168966,50.0399956 L216.065662,50.0399956 L235.233698,102.574612 C235.713768,103.89036 235.036317,105.346157 233.72057,105.826227 C233.442031,105.927856 233.147827,105.979852 232.851326,105.979852 L3.38941443,105.979852 C1.98882223,105.979852 0.85341791,104.844448 0.85341791,103.443856 C0.85341791,103.140193 0.907955612,102.838999 1.01443381,102.554617 L20.6769238,50.0399956 L39.6324252,50.0399956 Z" id="Combined-Shape" fill="#E8590C"></path>
            </g>
        </g>
    </g>
</svg>